<svg xmlns="http://www.w3.org/2000/svg" width="65" height="63" viewBox="0 0 65 63">
    <defs>
        <linearGradient id="a" x1="92.651%" x2="9.952%" y1="23.519%" y2="79.892%">
            <stop offset="0%" stop-color="#88F3E3"/>
            <stop offset="100%" stop-color="#50E3C2"/>
        </linearGradient>
    </defs>
    <g fill="none" fill-rule="evenodd" transform="translate(1 1)">
        <ellipse cx="31.094" cy="30.5" fill="#FFF" stroke="url(#a)" stroke-width="2" rx="31.094" ry="30.5"/>
        <path fill="#1B212D" d="M42.998 40.692h-22.57c-5.694 0-10.353-4.537-10.353-10.08 0-5.548 4.659-10.085 10.352-10.085h22.571c5.693 0 10.353 4.537 10.353 10.084 0 5.544-4.66 10.081-10.353 10.081"/>
        <path fill="#6CE6D6" d="M27.03 31.094c0 2.629-1.562 4.76-3.49 4.76-1.93 0-3.49-2.131-3.49-4.76 0-2.626 1.56-4.757 3.49-4.757 1.928 0 3.49 2.13 3.49 4.757M43.99 31.094c0 2.629-1.562 4.76-3.487 4.76-1.93 0-3.493-2.131-3.493-4.76 0-2.626 1.563-4.757 3.493-4.757 1.925 0 3.488 2.13 3.488 4.757"/>
    </g>
</svg>
