<svg style="position: absolute; width: 0; height: 0; overflow: hidden;" version="1.1" xmlns="http://www.w3.org/2000/svg">
  <defs>
    <symbol id="icon-menu" viewBox="0 0 32 32">
      <title>menu</title>
      <path fill="#ffffff" id="svg_1" d="m4,10l24,0c1.104,0 2,-0.896 2,-2s-0.896,-2 -2,-2l-24,0c-1.104,0 -2,0.896 -2,2s0.896,2 2,2zm24,4l-24,0c-1.104,0 -2,0.896 -2,2s0.896,2 2,2l24,0c1.104,0 2,-0.896 2,-2s-0.896,-2 -2,-2zm0,8l-24,0c-1.104,0 -2,0.896 -2,2s0.896,2 2,2l24,0c1.104,0 2,-0.896 2,-2s-0.896,-2 -2,-2z"/>
    </symbol>
    <symbol id="icon-mail-forward" viewBox="0 0 16 16">
      <title>mail-forward</title>
      <path d="M16 5.714c0 0.152-0.063 0.295-0.17 0.402l-4.571 4.571c-0.107 0.107-0.25 0.17-0.402 0.17-0.313 0-0.571-0.259-0.571-0.571v-2.286h-2c-3.848 0-6.375 0.741-6.375 5 0 0.366 0.018 0.732 0.045 1.098 0.009 0.143 0.045 0.304 0.045 0.446 0 0.17-0.107 0.313-0.286 0.313-0.125 0-0.188-0.063-0.25-0.152-0.134-0.188-0.232-0.473-0.33-0.679-0.509-1.143-1.134-2.777-1.134-4.027 0-1 0.098-2.027 0.473-2.973 1.241-3.080 4.884-3.598 7.813-3.598h2v-2.286c0-0.313 0.259-0.571 0.571-0.571 0.152 0 0.295 0.063 0.402 0.17l4.571 4.571c0.107 0.107 0.17 0.25 0.17 0.402z"/>
    </symbol>
    <symbol id="icon-cancel" viewBox="0 0 16 16">
      <title>cancel</title>
      <path d="M11.344 10.406l-2.406-2.406 2.406-2.406-0.938-0.938-2.406 2.406-2.406-2.406-0.938 0.938 2.406 2.406-2.406 2.406 0.938 0.938 2.406-2.406 2.406 2.406zM8 1.344c3.688 0 6.656 2.969 6.656 6.656s-2.969 6.656-6.656 6.656-6.656-2.969-6.656-6.656 2.969-6.656 6.656-6.656z"/>
    </symbol>
    <symbol id="icon-download" viewBox="0 0 12 16">
      <title>download</title>
      <path d="M0 14h12v2h-12zM8 9v-9h-4v9h-2l4 5 4-5z"/>
    </symbol>
    <symbol id="icon-file" viewBox="0 0 14 16">
      <title>file</title>
      <path d="M9.143 4.571v-4.214c0.125 0.080 0.232 0.161 0.321 0.25l3.643 3.643c0.089 0.089 0.17 0.196 0.25 0.321h-4.214zM8 4.857c0 0.473 0.384 0.857 0.857 0.857h4.857v9.429c0 0.473-0.384 0.857-0.857 0.857h-12c-0.473 0-0.857-0.384-0.857-0.857v-14.286c0-0.473 0.384-0.857 0.857-0.857h7.143v4.857z"/>
    </symbol>
    <symbol id="icon-write" viewBox="0 0 14 16">
      <title>pencil</title>
      <path d="M3.241 13.714l0.812-0.813-2.098-2.098-0.813 0.813v0.955h1.143v1.143h0.955zM7.911 5.429c0-0.116-0.080-0.196-0.196-0.196-0.054 0-0.107 0.018-0.152 0.063l-4.839 4.839c-0.045 0.045-0.063 0.098-0.063 0.152 0 0.116 0.080 0.196 0.196 0.196 0.054 0 0.107-0.018 0.152-0.063l4.839-4.839c0.045-0.045 0.063-0.098 0.063-0.152zM7.429 3.714l3.714 3.714-7.429 7.429h-3.714v-3.714zM13.527 4.571c0 0.304-0.125 0.598-0.33 0.804l-1.482 1.482-3.714-3.714 1.482-1.473c0.205-0.214 0.5-0.339 0.804-0.339s0.598 0.125 0.813 0.339l2.098 2.089c0.205 0.214 0.33 0.509 0.33 0.813z"/>
    </symbol>
    <symbol id="icon-next-arrows" viewBox="0 0 16 13">
      <title>next</title>
      <g fill="none">
        <path d="M-8-5h24v24H-8z"/>
        <path fill="#FFF" d="M.59 11.34l4.58-4.59L.59 2.16 2 .75l6 6-6 6z"/>
        <g>
          <path d="M0-5h24v24H0z"/>
          <path fill="#FFF" d="M8.59 11.34l4.58-4.59-4.58-4.59L10 .75l6 6-6 6z"/>
        </g>
      </g>
    </symbol>
    <symbol id="icon-plus" viewBox="0 0 17 17">
      <title>plus</title>
      <path d="M10.2 0H6.8v6.8H0v3.4h6.8V17h3.4v-6.8H17V6.8h-6.8z" fill="#FFF"/>
    </symbol>
    <symbol id="icon-notification" viewBox="0 0 32 32">
      <title>notification</title>
      <path class="path1" d="M19.7377455,18.4536523 L17.1771993,15.1891289 L17.1771993,8.81135938 C17.1771993,5.55617969 14.5033745,2.85344922 11.0308515,2.39184766 L11.0308515,0.951234375 C11.0308515,0.425902344 10.5581812,0 9.97521932,0 C9.39220109,0 8.91953082,0.425902344 8.91953082,0.951234375 L8.91953082,2.39179688 C5.44700774,2.85339844 2.77312664,5.55612891 2.77312664,8.81130859 L2.77312664,15.1891289 L0.212636809,18.4536523 C-0.280265796,19.0819688 0.21889249,19.953832 1.07468097,19.953832 L18.8757577,19.953832 C19.7296863,19.9538828 20.2317752,19.0832891 19.7377455,18.4536523 Z" id="Shape"/>
      <path class="path2" d="M9.97521932,20.633082 C8.33307478,20.633082 6.99712049,21.8368008 6.99712049,23.3164648 C6.99712049,24.7961289 8.33313114,26 9.97521932,26 C11.6173639,26 12.9532618,24.7961797 12.9532618,23.3165664 C12.9532618,21.8369023 11.6173075,20.633082 9.97521932,20.633082 Z" id="Shape"/>
    </symbol>
    <symbol id="icon-delete_forever" viewBox="0 0 16 16">
      <title>delete_forever</title>
      <path d="M10.344 2.656h2.313v1.344h-9.313v-1.344h2.313l0.688-0.656h3.313zM5.625 7.906l1.438 1.438-1.406 1.406 0.938 0.938 1.406-1.406 1.406 1.406 0.938-0.938-1.406-1.406 1.406-1.438-0.938-0.938-1.406 1.438-1.406-1.438zM4 12.656v-8h8v8c0 0.719-0.625 1.344-1.344 1.344h-5.313c-0.719 0-1.344-0.625-1.344-1.344z"/>
    </symbol>
    <symbol id="icon-search" viewBox="0 0 32 32">
      <title>search</title>
      <path class="path1" d="M15.4999991,13.9999992 L14.7099991,13.9999992 L14.4299994,13.7299987 C15.4099989,12.5899993 15.999999,11.1099989 15.999999,9.49999943 C15.999999,5.90999949 13.0899993,2.99999982 9.49999943,2.99999982 C5.90999949,2.99999982 2.99999982,5.90999949 2.99999982,9.49999943 C2.99999982,13.0899993 5.90999949,15.999999 9.49999943,15.999999 C11.1099989,15.999999 12.5899993,15.4099989 13.7299987,14.4299994 L13.9999992,14.7099991 L13.9999992,15.4999991 L18.9999989,20.4899985 L20.4899985,18.9999989 L15.4999991,13.9999992 Z M9.49999943,13.9999992 C7.0099998,13.9999992 4.9999997,11.989999 4.9999997,9.49999943 C4.9999997,7.0099998 7.0099998,4.9999997 9.49999943,4.9999997 C11.989999,4.9999997 13.9999992,7.0099998 13.9999992,9.49999943 C13.9999992,11.989999 11.989999,13.9999992 9.49999943,13.9999992 Z" id="Fill-2" fill="#BFBEF8"/>
    </symbol>
    <symbol id="icon-checkmark" viewBox="0 0 32 32">
      <title>checkmark</title>
      <path class="path1" d="M28.998 8.531l-2.134-2.134c-0.394-0.393-1.030-0.393-1.423 0l-12.795 12.795-6.086-6.13c-0.393-0.393-1.029-0.393-1.423 0l-2.134 2.134c-0.393 0.394-0.393 1.030 0 1.423l8.924 8.984c0.393 0.393 1.030 0.393 1.423 0l15.648-15.649c0.393-0.392 0.393-1.030 0-1.423z"/>
    </symbol>
    <symbol id="icon-bin" viewBox="0 0 32 32">
      <title>bin</title>
      <path class="path1"
            d="M4 10v20c0 1.1 0.9 2 2 2h18c1.1 0 2-0.9 2-2v-20h-22zM10 28h-2v-14h2v14zM14 28h-2v-14h2v14zM18 28h-2v-14h2v14zM22 28h-2v-14h2v14z"/>
      <path class="path2"
            d="M26.5 4h-6.5v-2.5c0-0.825-0.675-1.5-1.5-1.5h-7c-0.825 0-1.5 0.675-1.5 1.5v2.5h-6.5c-0.825 0-1.5 0.675-1.5 1.5v2.5h26v-2.5c0-0.825-0.675-1.5-1.5-1.5zM18 4h-6v-1.975h6v1.975z"/>
    </symbol>
    <symbol id="icon-pencil" viewBox="0 0 32 32">
      <title>pencil</title>
      <path class="path1" d="M27 0c2.761 0 5 2.239 5 5 0 1.126-0.372 2.164-1 3l-2 2-7-7 2-2c0.836-0.628 1.874-1 3-1zM2 23l-2 9 9-2 18.5-18.5-7-7-18.5 18.5zM22.362 11.362l-14 14-1.724-1.724 14-14 1.724 1.724z"/>
    </symbol>
    <symbol id="icon-star" viewBox="0 0 32 32">
      <title>star</title>
      <path class="path1" d="M31.881 12.557c-0.277-0.799-0.988-1.384-1.844-1.511l-8.326-1.238-3.619-7.514c-0.381-0.789-1.196-1.294-2.092-1.294s-1.711 0.505-2.092 1.294l-3.619 7.514-8.327 1.238c-0.855 0.127-1.566 0.712-1.842 1.511-0.275 0.801-0.067 1.683 0.537 2.285l6.102 6.092-1.415 8.451c-0.144 0.851 0.225 1.705 0.948 2.203 0.397 0.273 0.864 0.412 1.331 0.412 0.384 0 0.769-0.094 1.118-0.281l7.259-3.908 7.26 3.908c0.349 0.187 0.734 0.281 1.117 0.281 0.467 0 0.934-0.139 1.332-0.412 0.723-0.498 1.090-1.352 0.947-2.203l-1.416-8.451 6.104-6.092c0.603-0.603 0.81-1.485 0.537-2.285zM23.588 19.363c-0.512 0.51-0.744 1.229-0.627 1.934l1.416 8.451-7.26-3.906c-0.348-0.188-0.732-0.281-1.118-0.281-0.384 0-0.769 0.094-1.117 0.281l-7.26 3.906 1.416-8.451c0.118-0.705-0.114-1.424-0.626-1.934l-6.102-6.092 8.326-1.24c0.761-0.113 1.416-0.589 1.743-1.268l3.621-7.512 3.62 7.513c0.328 0.679 0.982 1.154 1.742 1.268l8.328 1.24-6.102 6.091z"/>
    </symbol>
    <symbol id="icon-star-full" viewBox="0 0 32 32">
      <title>star-full</title>
      <path class="path1" d="M32 12.408l-11.056-1.607-4.944-10.018-4.944 10.018-11.056 1.607 8 7.798-1.889 11.011 9.889-5.199 9.889 5.199-1.889-11.011 8-7.798z"/>
    </symbol>
    <symbol id="icon-unicorn" viewBox="0 0 448.546 448.546">
      <title>Unicorn</title>
      <g>
        <path
          d="M440.243,167.706c0-11.868-4.621-23.025-13.013-31.416c-8.391-8.392-19.552-13.014-31.427-13.014   c-19.69,0-36.765,13.135-42.448,31.277c-5.418-1.311-10.982-1.988-16.624-1.988c-16.155,0-32.298,5.542-45.455,15.607   c-6.048,4.628-12.589,8.308-19.475,11.001c-0.379-56.859-22.995-110.52-59.285-139.536c-2.278-4.122-5.096-7.947-8.453-11.322   l-6.029-6.063l-4.615,5.245c-14.915-7.159-30.575-9.539-45.658-6.858c-10.969,1.952-20.159,9.247-24.584,19.514   c-3.117,7.234-3.543,15.173-1.412,22.511c-1.653,0.767-3.252,1.625-4.796,2.569L8.303,0L88.68,107.432l-22.606,49.411   c-4.969,10.856-3.98,23.269,2.643,33.202c6.358,9.534,17.001,15.227,28.469,15.227c6.129,0,12.163-1.661,17.449-4.805   l17.271-10.269c-8.082,18.234-16.945,40.986-16.945,53.067c0,22.728,7.94,44.652,22.357,61.737   c5.036,5.967,10.79,11.242,17.086,15.753v127.79h33h15h42V338.559c23.455-1.98,55.128-15.9,83.098-30.766   c-0.066,3.365-0.098,6.385-0.098,9.213v131.54h32h16h41V316.088l23.84,43.529V167.706z M241.637,107.103   c9.688,23.505,14.535,49.807,14.142,76.437c-4.132,0.664-8.339,1.006-12.597,1.006h-9.405   c-2.255-16.181-8.859-56.497-22.198-87.708c5.073-8.275,7.696-17.871,7.973-27.541C228.232,80.062,235.794,92.925,241.637,107.103z    M137.871,46.486c2.323-5.393,6.95-9.072,12.69-10.094c10.537-1.87,21.194-0.621,31.788,3.684L171.452,52.46   c-1.186,1.096-2.835,1.697-4.758,1.697c-6.766,0-18.485,1.586-29.624,3.927C135.987,54.31,136.238,50.275,137.871,46.486z    M69.922,55.652l32.549,19.54l-6.209,15.667L69.922,55.652z M106.457,186.715c-2.813,1.672-6.019,2.557-9.271,2.557   c-6.107,0-11.773-3.029-15.156-8.104c-3.472-5.206-4.011-11.976-1.406-17.668l32.285-70.566c4.13-9.025,11.996-15.538,21.58-17.868   c11.51-2.798,25.355-4.908,32.305-4.908c6.164,0,11.88-2.308,16.092-6.496l15.13-17.166c7.906,13.432,7.512,32.182-1.935,44.711   l-2.878,3.817l1.998,4.343c0.569,1.237,1.126,2.496,1.672,3.775c4.245,9.944,4.454,21.294-0.004,31.145   c-3.774,8.34-10.347,14.981-19.683,19.849c-13.224,6.896-27.214,7.729-27.354,7.736l0,0c-1.263,0.129-2.484,0.532-3.575,1.181   L106.457,186.715z M187.403,335.923v71.623h-17v-77.53C175.845,332.496,181.532,334.486,187.403,335.923z M170.403,432.546v-9h17v9   H170.403z M203.403,432.546v-9h25v9H203.403z M238.937,322.8c-0.721,0-1.43-0.019-2.106-0.055l-8.428-0.452v85.253h-25v-84.874   l-6.649-1.138c-18.506-3.169-35.271-12.704-47.208-26.85c-11.985-14.202-18.586-32.464-18.586-51.419   c0-10.817,12.437-41.03,24.581-65.919c6.205-0.849,17.416-3.073,28.536-8.763c9.202-4.71,19.319-12.309,25.808-24.357   c6.24,26.061,8.868,48.854,8.908,49.212l0.801,7.106h23.59c21.01,0,41.003-6.801,57.815-19.665   c10.382-7.942,23.072-12.315,35.733-12.315c6.323,0,12.518,1.071,18.414,3.185c1.911,0.685,3.44,1.347,4.545,1.969   c6.377,3.587,12.215,8.01,17.349,13.145c15.066,15.066,23.364,35.053,23.364,56.278v164.404h-25v-83.374l-4.846-2.078   c-10.421-4.471-17.154-14.845-17.154-26.429v-20.904l-12.021,6.988C295.849,308.221,259.467,322.8,238.937,322.8z M359.403,334.354   v73.191h-16v-89.347C347.211,324.822,352.678,330.427,359.403,334.354z M343.403,432.546v-9h16v9H343.403z M375.403,432.546v-9h25   v9H375.403z M424.243,297.094l-7.84-14.315v-39.637c0-25.499-9.962-49.504-28.05-67.593c-5.947-5.946-12.68-11.084-20.01-15.302   c3.324-12.102,14.51-20.971,27.46-20.971c7.601,0,14.744,2.957,20.112,8.327c5.37,5.369,8.327,12.509,8.327,20.103V297.094z"/>
        <path
          d="M160.997,128.102c7.36-10.74,4.61-25.465-6.13-32.825c-3.948-2.705-8.56-4.136-13.333-4.136   c-7.8,0-15.087,3.838-19.492,10.267c-7.359,10.74-4.609,25.466,6.131,32.824c3.948,2.706,8.559,4.137,13.333,4.137h0.001   C149.306,138.368,156.592,134.53,160.997,128.102z M147.798,119.058c-1.421,2.073-3.772,3.311-6.292,3.311   c-1.532,0-3.016-0.462-4.29-1.335c-3.462-2.372-4.349-7.12-1.977-10.582c1.421-2.073,3.773-3.311,6.294-3.311   c1.532,0,3.016,0.462,4.289,1.334c1.677,1.149,2.807,2.884,3.18,4.882C149.375,115.355,148.948,117.38,147.798,119.058z"/>
      </g>
    </symbol>

    <!--homepage icons-->
    <symbol id="icon-rocket" viewBox="0 0 22 40">
    <title>rocket</title>
      <g>
        <g>
          <path d="M15.8773919,23.925848 C15.9057582,23.6620663 16.1027912,23.4439766 16.3696923,23.382768 C16.6360293,23.3218713 16.914293,23.4297076 17.0622491,23.6532554 L21.0122564,29.6282261 C21.6059341,30.5303704 21.9194945,31.5726316 21.9194945,32.6423392 L21.9194945,39.2983236 C21.9194945,39.5621053 21.7482491,39.797193 21.4914212,39.885848 C21.4209084,39.9101754 21.3472527,39.9221053 21.2748059,39.9221053 C21.0852674,39.9221053 20.9008059,39.8410916 20.7755751,39.6933333 L15.1087619,32.9916569 C15.0004542,32.8631579 14.9494432,32.6980117 14.9664469,32.5329435 L15.8773919,23.925848 Z" id="Shape" fill="#FF4F19"></path>
          <path d="M6.04210256,23.925848 C6.01373626,23.6620663 5.8167033,23.4439766 5.5498022,23.382768 C5.2834652,23.3218713 5.00520147,23.4297076 4.85724542,23.6532554 L0.907238095,29.6282261 C0.31356044,30.5303704 0,31.5726316 0,32.6423392 L0,39.2983236 C0,39.5621053 0.171245421,39.797193 0.42807326,39.885848 C0.498586081,39.9101754 0.572241758,39.9221053 0.644688645,39.9221053 C0.834227106,39.9221053 1.01868864,39.8410916 1.14391941,39.6933333 L6.8107326,32.9916569 C6.91904029,32.8631579 6.97005128,32.6980117 6.95304762,32.5329435 L6.04210256,23.925848 Z" id="Shape" fill="#E9001E"></path>
          <path d="M11.2915604,0.089122807 C11.0875971,-0.0296296296 10.831978,-0.0296296296 10.6280147,0.089122807 C10.3522491,0.249356725 3.86821245,4.10955166 3.86821245,12.4757895 C3.86821245,15.8538791 4.7358022,24.8417934 5.88665201,33.3822222 C6.0534652,34.6212865 7.15209524,35.5557115 8.44082784,35.5557115 L13.4787473,35.5557115 C14.7674799,35.5557115 15.8661099,34.6212865 16.0329231,33.3822222 C17.1837729,24.8417934 18.0513626,15.8538791 18.0513626,12.4757895 C18.0513626,4.10955166 11.567326,0.249278752 11.2915604,0.089122807 Z" id="Shape" fill="#FFD200"></path>
          <path d="M10.9597875,35.5557115 L8.44082784,35.5557115 C7.15209524,35.5557115 6.0534652,34.6212865 5.88665201,33.3822222 C4.7358022,24.8417934 3.86821245,15.8538791 3.86821245,12.4757895 C3.86821245,4.10955166 10.3522491,0.249278752 10.6280147,0.089122807 C10.7296337,0.0299415205 10.8441465,0.000389863548 10.9586593,0.000155945419 L10.9598681,0.000155945419 L10.9598681,35.5557115 L10.9597875,35.5557115 Z" id="Shape" fill="#FF9600"></path>
          <ellipse id="Oval" fill="#53DCFF" cx="10.9597875" cy="13.0995712" rx="3.86813187" ry="3.74269006"/>
          <path d="M10.9597875,39.9221832 C10.6034359,39.9221832 10.3150989,39.642885 10.3150989,39.2984016 L10.3150989,24.3276413 C10.3150989,23.9831579 10.6034359,23.7038596 10.9597875,23.7038596 C11.3161392,23.7038596 11.6044762,23.9831579 11.6044762,24.3276413 L11.6044762,39.2984016 C11.6044762,39.642885 11.3161392,39.9221832 10.9597875,39.9221832 Z" id="Shape" fill="#FF4F19"></path>
          <path d="M10.6280147,0.089122807 C10.4436337,0.19625731 7.48676923,1.95961014 5.54536996,5.61419103 L16.3742051,5.61419103 C14.4328059,1.95961014 11.4759414,0.196179337 11.2915604,0.089122807 C11.0875971,-0.0297076023 10.831978,-0.0297076023 10.6280147,0.089122807 Z" id="Shape" fill="#FF4F19"></path>
          <path d="M10.9597875,0 C10.8448718,0 10.729956,0.0297076023 10.6280147,0.089122807 C10.4436337,0.19625731 7.48676923,1.95961014 5.54536996,5.61419103 L10.9597875,5.61419103 L10.9597875,0 Z" id="Shape" fill="#E9001E"/>
          <path d="M14.8279194,13.0995712 C14.8279194,11.0325146 13.0961245,9.35688109 10.9597875,9.35688109 L10.9597875,16.8422612 C13.0961245,16.8422612 14.8279194,15.1666277 14.8279194,13.0995712 Z" id="Shape" fill="#B3F4FF"/>
        </g>
        <path d="M10.9597875,17.4660429 C8.47169231,17.4660429 6.44696703,15.5072904 6.44696703,13.0995712 C6.44696703,10.6918519 8.47169231,8.73309942 10.9597875,8.73309942 C13.4478828,8.73309942 15.4726081,10.6918519 15.4726081,13.0995712 C15.4726081,15.5072904 13.4478828,17.4660429 10.9597875,17.4660429 Z M10.9597875,9.98066277 C9.18246154,9.98066277 7.73634432,11.379883 7.73634432,13.0995712 C7.73634432,14.8192593 9.18246154,16.2184795 10.9597875,16.2184795 C12.7371136,16.2184795 14.1832308,14.8192593 14.1832308,13.0995712 C14.1832308,11.379883 12.7371136,9.98066277 10.9597875,9.98066277 Z" id="Shape" fill="#5C546A"></path>
      </g>
    </symbol>
    <symbol id="icon-brain" viewBox="0 0 38 40">
    <title>brain</title>
      <g>
        <path d="M37.9932479,15.1558594 C37.9932479,11.5416406 35.6575826,8.42515625 32.338314,7.31609375 C32.1380289,3.24828125 28.7491983,0 24.6123017,0 C22.436095,0 20.4271983,0.89796875 19,2.39554687 L18.999843,2.39554687 C17.5727231,0.898046875 15.5637479,0 13.3876983,0 C9.25064463,0 5.86181405,3.24796875 5.66160744,7.31601562 C2.34265289,8.4253125 0.00683057851,11.5417969 0.00683057851,15.1558594 C0.00683057851,17.0217969 0.631161157,18.8 1.75985537,20.2386719 C0.853822314,21.5834375 0.36822314,23.1625781 0.36822314,24.8250781 C0.36822314,28.3008594 2.51247521,31.320625 5.6556405,32.5330469 C5.77843388,36.6713281 9.19969008,39.9999219 13.3876983,39.9999219 C15.5636694,39.9999219 17.5725661,39.1019531 18.999843,37.6047656 L19,37.6045313 C20.4271983,39.1020312 22.436095,40 24.6123017,40 C28.8002314,40 32.2216446,36.6714063 32.344281,32.5329688 C35.4875248,31.3204688 37.6318554,28.3007031 37.6318554,24.825 C37.6318554,23.1623438 37.1464132,21.5832812 36.2402231,20.2385937 C37.3689174,18.8 37.9932479,17.0217187 37.9932479,15.1558594 Z" id="Shape" fill="#DC85A6"></path>
        <path d="M37.9932479,15.1558594 C37.9932479,11.5416406 35.6575826,8.42515625 32.338314,7.31609375 C32.1380289,3.24828125 28.7491983,0 24.6123017,0 C22.436095,0 20.4271983,0.89796875 19,2.39554687 L18.999843,2.39554687 L18.999843,37.6048438 L19,37.6046094 C20.4271983,39.1020312 22.436095,40 24.6123017,40 C28.8002314,40 32.2216446,36.6714063 32.344281,32.5329688 C35.4875248,31.3204688 37.6318554,28.3007031 37.6318554,24.825 C37.6318554,23.1623438 37.1464132,21.5832812 36.2402231,20.2385937 C37.3689174,18.8 37.9932479,17.0217187 37.9932479,15.1558594 Z" id="Shape" fill="#CE5C82"></path>
        <path d="M35.0495041,18.8325781 C33.4976281,17.3624219 31.4621942,16.5528125 29.3188058,16.5528125 L26.3089545,16.5528125 C25.2997562,16.5528125 24.4817355,17.366875 24.4817355,18.3710156 C24.4817355,19.375 25.2996777,20.1892188 26.3089545,20.1892188 L29.3188058,20.1892188 C30.5199669,20.1892188 31.660438,20.6426563 32.5299628,21.4663281 C32.8837397,21.8014844 33.3369917,21.9676563 33.7895372,21.9676563 C34.2723099,21.9676563 34.7542975,21.7784375 35.1132562,21.4030469 C35.8090331,20.675625 35.7805331,19.5248438 35.0495041,18.8325781 Z" id="Shape" fill="#DC85A6"></path>
        <g id="Group" transform="translate(2.355372, 16.484375)" fill="#CE5C82">
          <path d="M9.3359876,0.0684375 L6.32613636,0.0684375 C4.18321901,0.0684375 2.14833471,0.87765625 0.596301653,2.34695313 C-0.134805785,3.03921875 -0.163541322,4.19 0.532,4.9175 C0.891194215,5.29328125 1.37310331,5.48234375 1.85611157,5.48234375 C2.3085,5.48234375 2.76183058,5.31617188 3.11529339,4.98140625 C3.98489669,4.15828125 5.12521074,3.70476563 6.32613636,3.70476563 L9.3359876,3.70476563 C10.3449504,3.70476563 11.1632066,2.89054688 11.1632066,1.8865625 C11.1631281,0.8825 10.3449504,0.0684375 9.3359876,0.0684375 Z" id="Shape"></path>
          <path d="M5.56252479,10.375625 C4.46452893,11.4683594 3.72949587,12.8450781 3.43680165,14.3575781 C3.24601653,15.3436719 3.89468595,16.2969531 4.88566942,16.4867969 C5.00233884,16.5090625 5.11853719,16.5199219 5.23316529,16.5199219 C6.09161983,16.5199219 6.85719421,15.9150781 7.02536777,15.0451563 C7.17956612,14.2491406 7.56710331,13.5235938 8.14668182,12.9469531 C8.86012397,12.236875 8.86012397,11.0857031 8.14668182,10.3755469 C7.43308264,9.66554688 6.27612397,9.66554688 5.56252479,10.375625 Z" id="Shape"></path>
        </g>
        <path d="M30.0821033,26.8598438 C29.3685041,26.1499219 28.211624,26.15 27.4981033,26.8600781 C26.7846612,27.5701563 26.7846612,28.72125 27.4982603,29.4314844 C28.0777603,30.0078125 28.465219,30.7334375 28.6194174,31.5294531 C28.7877479,32.3995313 29.5532438,33.0041406 30.4116198,33.0041406 C30.5260124,33.0041406 30.6424463,32.9933594 30.7591157,32.9710156 C31.7500992,32.7811719 32.3986901,31.8278906 32.2078264,30.8420313 C31.9148967,29.3290625 31.1799421,27.9523438 30.0821033,26.8598438 Z" id="Shape" fill="#DC85A6"></path>
      </g>
    </symbol>
    <symbol id="icon-coding" viewBox="0 0 43 40">
      <title>coding</title>
      <g>
        <path d="M30.287113,39.9451883 L12.5580753,39.9451883 C12.5580753,38.3133891 13.8810879,36.9903766 15.512887,36.9903766 L27.3322176,36.9903766 C28.9641004,36.9902929 30.287113,38.3133891 30.287113,39.9451883" id="Shape" fill="#E8EDEE"></path>
        <polygon id="Shape" fill="#B0B6BB" points="26.5935565 36.9902929 16.2516318 36.9902929 17.7290377 31.0806695 25.1161506 31.0806695"></polygon>
        <path d="M42.8451883,25.1709623 L0,25.1709623 L0,2.64033473 C0,1.21238494 1.15757322,0.0548117155 2.58552301,0.0548117155 L40.259749,0.0548117155 C41.6876987,0.0548117155 42.845272,1.21238494 42.845272,2.64033473 L42.845272,25.1709623 L42.8451883,25.1709623 Z" id="Shape" fill="#38454F"></path>
        <path d="M40.2596653,31.0806695 L2.58552301,31.0806695 C1.15757322,31.0806695 0,29.9230962 0,28.4951464 L0,25.1709623 L42.8451883,25.1709623 L42.8451883,28.4951464 C42.8451883,29.9230962 41.6876151,31.0806695 40.2596653,31.0806695" id="Shape" fill="#E8EDEE"></path>
        <g transform="translate(5.857741, 2.928870)" id="Shape" fill="#8C8ADD">
          <path d="M30.3390795,19.2872803 L19.25841,19.2872803 C18.8498745,19.2872803 18.5196653,18.956318 18.5196653,18.5485356 C18.5196653,18.1407531 18.8498745,17.8097908 19.25841,17.8097908 L30.3390795,17.8097908 C30.7476151,17.8097908 31.0778243,18.1407531 31.0778243,18.5485356 C31.0777406,18.956318 30.7475314,19.2872803 30.3390795,19.2872803"></path>
          <path d="M8.17774059,14.8549791 L0.790627615,14.8549791 C0.38209205,14.8549791 0.0518828452,14.5240167 0.0518828452,14.1162343 C0.0518828452,13.7084519 0.38209205,13.3774895 0.790627615,13.3774895 L8.17774059,13.3774895 C8.58627615,13.3774895 8.91648536,13.7084519 8.91648536,14.1162343 C8.91648536,14.5240167 8.58627615,14.8549791 8.17774059,14.8549791"></path>
          <path d="M26.645523,14.8549791 L15.5648536,14.8549791 C15.156318,14.8549791 14.8261088,14.5240167 14.8261088,14.1162343 C14.8261088,13.7084519 15.156318,13.3774895 15.5648536,13.3774895 L26.645523,13.3774895 C27.0540586,13.3774895 27.3842678,13.7084519 27.3842678,14.1162343 C27.3841841,14.5240167 27.0539749,14.8549791 26.645523,14.8549791"></path>
          <path d="M11.8712971,14.8549791 C11.7752301,14.8549791 11.6792469,14.8328033 11.5906276,14.7958996 C11.4945607,14.7589958 11.4207531,14.7072803 11.3468619,14.6407531 C11.2131381,14.5004184 11.132636,14.3157322 11.132636,14.1162343 C11.132636,13.9167364 11.2131381,13.7321339 11.3468619,13.5917155 C11.4207531,13.525272 11.4946444,13.4735565 11.5906276,13.436569 C11.8558159,13.3257741 12.188954,13.3848536 12.3958159,13.5917155 C12.5287866,13.7320502 12.6100418,13.9241004 12.6100418,14.1162343 C12.6100418,14.3082845 12.5287866,14.5003347 12.3958159,14.6407531 C12.2553975,14.7737238 12.0633473,14.8549791 11.8712971,14.8549791"></path>
          <path d="M15.5648536,19.2872803 L4.4841841,19.2872803 C4.07564854,19.2872803 3.74543933,18.956318 3.74543933,18.5485356 C3.74543933,18.1407531 4.07564854,17.8097908 4.4841841,17.8097908 L15.5648536,17.8097908 C15.9733891,17.8097908 16.3035983,18.1407531 16.3035983,18.5485356 C16.3035983,18.956318 15.9733891,19.2872803 15.5648536,19.2872803"></path>
          <path d="M0.790627615,19.2872803 C0.694560669,19.2872803 0.598577406,19.2651046 0.509958159,19.2282008 C0.421338912,19.1912971 0.340083682,19.1395816 0.266192469,19.0730544 C0.132468619,18.9327197 0.0519665272,18.7480335 0.0519665272,18.5485356 C0.0519665272,18.4524686 0.0741422594,18.3564854 0.111046025,18.2678661 C0.147949791,18.1717992 0.199665272,18.0979916 0.266192469,18.0241004 C0.443514644,17.8542259 0.694644351,17.7803347 0.930292887,17.8246862 C0.982761506,17.8320502 1.02635983,17.8468619 1.07138075,17.8690377 C1.11497908,17.8838494 1.16,17.9059414 1.19698745,17.9354812 C1.24058577,17.9650209 1.27824268,17.9945607 1.31514644,18.0241004 C1.38158996,18.0979916 1.43330544,18.1718828 1.47029289,18.2678661 C1.50719665,18.3564854 1.52937238,18.4525523 1.52937238,18.5485356 C1.52937238,18.7479498 1.44811715,18.932636 1.31514644,19.0730544 C1.27824268,19.1025941 1.24050209,19.1321339 1.19698745,19.1616736 C1.16008368,19.1912134 1.11497908,19.2133891 1.07138075,19.2281172 C1.02635983,19.2502929 0.982761506,19.2650209 0.930292887,19.2724686 C0.886694561,19.2798326 0.834979079,19.2872803 0.790627615,19.2872803"></path>
          <path d="M30.3390795,14.8549791 C30.2940586,14.8549791 30.2430126,14.8476151 30.1987448,14.8401674 C30.1470293,14.8328033 30.1026778,14.8179916 30.05841,14.7958159 C30.0140586,14.7810042 29.9697908,14.7589121 29.9246862,14.7293724 C29.8884519,14.6998326 29.8515481,14.6702929 29.8146444,14.6407531 C29.6809205,14.5004184 29.6004184,14.3083682 29.6004184,14.1162343 C29.6004184,13.9241841 29.6809205,13.7321339 29.8146444,13.5917155 L29.9246862,13.5030962 C29.9697908,13.4735565 30.0140586,13.4513808 30.05841,13.4366527 C30.1027615,13.414477 30.1470293,13.399749 30.1987448,13.3923013 C30.4351464,13.3405858 30.6929707,13.421841 30.8635983,13.5917155 C30.8931381,13.6286192 30.9226778,13.6656067 30.9522176,13.7098745 C30.9817573,13.7467782 31.0031799,13.7911297 31.0186611,13.8354812 C31.0408368,13.8798326 31.0555649,13.9241004 31.0622594,13.9758159 C31.0703766,14.0201674 31.0777406,14.0718828 31.0777406,14.1161506 C31.0777406,14.1604184 31.0703766,14.2122176 31.0622594,14.2639331 C31.0556485,14.3082845 31.0408368,14.3525523 31.0186611,14.3969038 C31.0031799,14.4412552 30.9817573,14.485523 30.9522176,14.5298745 C30.9226778,14.5667782 30.8931381,14.6037657 30.8635983,14.6406695 C30.8266946,14.6702092 30.788954,14.699749 30.7528033,14.7292887 C30.7084519,14.7588285 30.663431,14.7810042 30.6198326,14.7957322 C30.5748117,14.8179079 30.5312134,14.832636 30.4787448,14.8400837 C30.4350628,14.8476151 30.3833473,14.8549791 30.3390795,14.8549791"></path>
          <path d="M30.3390795,5.99046025 L19.25841,5.99046025 C18.8498745,5.99046025 18.5196653,5.65949791 18.5196653,5.25171548 C18.5196653,4.84393305 18.8498745,4.51297071 19.25841,4.51297071 L30.3390795,4.51297071 C30.7476151,4.51297071 31.0778243,4.84393305 31.0778243,5.25171548 C31.0778243,5.65949791 30.7475314,5.99046025 30.3390795,5.99046025"></path>
          <path d="M30.3390795,10.4227615 L22.9519665,10.4227615 C22.543431,10.4227615 22.2132218,10.0917992 22.2132218,9.68401674 C22.2132218,9.27623431 22.543431,8.94527197 22.9519665,8.94527197 L30.3390795,8.94527197 C30.7476151,8.94527197 31.0778243,9.27623431 31.0778243,9.68401674 C31.0778243,10.0917992 30.7475314,10.4227615 30.3390795,10.4227615"></path>
          <path d="M17.0422594,10.4227615 L15.5648536,10.4227615 C15.156318,10.4227615 14.8261088,10.0917992 14.8261088,9.68401674 C14.8261088,9.27623431 15.156318,8.94527197 15.5648536,8.94527197 L17.0422594,8.94527197 C17.450795,8.94527197 17.7810042,9.27623431 17.7810042,9.68401674 C17.7810042,10.0917992 17.450795,10.4227615 17.0422594,10.4227615"></path>
          <path d="M26.645523,1.55824268 L15.5648536,1.55824268 C15.156318,1.55824268 14.8261088,1.22728033 14.8261088,0.819497908 C14.8261088,0.411715481 15.156318,0.0807531381 15.5648536,0.0807531381 L26.645523,0.0807531381 C27.0540586,0.0807531381 27.3842678,0.411715481 27.3842678,0.819497908 C27.3842678,1.22728033 27.0539749,1.55824268 26.645523,1.55824268"></path>
          <path d="M30.3390795,1.55824268 C30.2940586,1.55824268 30.2430126,1.55087866 30.1987448,1.54343096 C30.1470293,1.53606695 30.1026778,1.52125523 30.05841,1.4990795 C30.0140586,1.48426778 29.9697908,1.46217573 29.9246862,1.43263598 C29.8884519,1.40309623 29.8515481,1.37355649 29.8146444,1.34401674 C29.6809205,1.20368201 29.6004184,1.0116318 29.6004184,0.819497908 C29.6004184,0.627447699 29.6809205,0.43539749 29.8146444,0.294979079 L29.9246862,0.206359833 C29.9697908,0.176820084 30.0140586,0.154644351 30.05841,0.139916318 C30.1027615,0.117740586 30.1470293,0.103012552 30.1987448,0.0955648536 C30.4351464,0.0438493724 30.6929707,0.125104603 30.8635983,0.294979079 C30.8931381,0.331882845 30.9226778,0.368870293 30.9522176,0.413138075 C30.9817573,0.450041841 31.0031799,0.494393305 31.0186611,0.53874477 C31.0408368,0.583096234 31.0555649,0.627364017 31.0622594,0.679079498 C31.0703766,0.723430962 31.0777406,0.775146444 31.0777406,0.819414226 C31.0777406,0.863682008 31.0703766,0.915481172 31.0622594,0.967196653 C31.0556485,1.01154812 31.0408368,1.0558159 31.0186611,1.10016736 C31.0031799,1.14451883 30.9817573,1.18878661 30.9522176,1.23313808 C30.9226778,1.27004184 30.8931381,1.30702929 30.8635983,1.34393305 C30.8266946,1.3734728 30.788954,1.40301255 30.7528033,1.4325523 C30.7084519,1.46209205 30.663431,1.48426778 30.6198326,1.49899582 C30.5748117,1.52117155 30.5312134,1.53589958 30.4787448,1.54334728 C30.4350628,1.55079498 30.3833473,1.55824268 30.3390795,1.55824268"></path>
          <path d="M16.3035983,5.99046025 C16.1115481,5.99046025 15.9187448,5.90920502 15.7790795,5.77623431 C15.712636,5.7023431 15.6609205,5.62108787 15.6239331,5.53246862 C15.5869456,5.44384937 15.5648536,5.34778243 15.5648536,5.25179916 C15.5648536,5.15573222 15.5870293,5.05974895 15.6239331,4.97112971 C15.6608368,4.88251046 15.7125523,4.80125523 15.7790795,4.72736402 C15.948954,4.55748954 16.2075314,4.48359833 16.4431799,4.52794979 C16.4956485,4.53531381 16.5392469,4.55012552 16.5842678,4.57230126 C16.6278661,4.58711297 16.672887,4.60920502 16.7098745,4.63874477 C16.7534728,4.66828452 16.7911297,4.69782427 16.8206695,4.72736402 C16.8945607,4.80125523 16.9462762,4.88251046 16.9831799,4.97112971 C17.0200837,5.05974895 17.0422594,5.1558159 17.0422594,5.25179916 C17.0422594,5.34786611 17.0200837,5.44384937 16.9831799,5.53246862 C16.9462762,5.62108787 16.8945607,5.7023431 16.8206695,5.77623431 C16.7911297,5.80577406 16.7534728,5.83531381 16.7098745,5.86485356 C16.6729707,5.89439331 16.6278661,5.91656904 16.5842678,5.93129707 C16.5392469,5.9534728 16.4956485,5.96820084 16.4431799,5.97564854 C16.3995816,5.98309623 16.3478661,5.99046025 16.3035983,5.99046025"></path>
          <path d="M19.9971548,10.4227615 C19.7969874,10.4227615 19.6123013,10.3415063 19.472636,10.2085356 C19.3389121,10.0682008 19.25841,9.87615063 19.25841,9.68401674 C19.25841,9.49196653 19.3389121,9.29991632 19.472636,9.15949791 C19.7459414,8.88619247 20.2482845,8.88619247 20.52159,9.15949791 C20.6545607,9.29983264 20.7358159,9.49188285 20.7358159,9.68401674 C20.7358159,9.73573222 20.7284519,9.78008368 20.7203347,9.83179916 C20.7137238,9.87615063 20.6989121,9.92041841 20.6767364,9.96476987 C20.6612552,10.0091213 20.6398326,10.0533891 20.6102929,10.0977406 C20.5807531,10.1346444 20.5512134,10.1716318 20.5216736,10.2085356 C20.3812552,10.3415063 20.196569,10.4227615 19.9971548,10.4227615"></path>
        </g>
        <polygon id="Shape" fill="#BFBEFF" points="6.6483682 13.3516318 16.9902929 13.3516318 16.9902929 3.00970711 6.6483682 3.00970711"></polygon>
      </g>
    </symbol>
    <symbol id="icon-paint-brush" viewBox="0 0 51 40">
    <title>paint-brush</title>
      <g id="group-45svg">
        <path d="M38.9527706,39.5049412 L42.3898899,39.5049412 C43.052656,39.5049412 43.5900275,39.1912941 43.5900275,38.8042353 C43.5900275,38.4174118 43.052656,38.1035294 42.3898899,38.1035294 L42.2301055,38.1035294 C41.5673394,38.1035294 41.0302018,37.7898824 41.0302018,37.4028235 C41.0302018,37.016 41.5673394,36.7021176 42.2301055,36.7021176 L49.6192569,36.7021176 C50.2820229,36.7021176 50.8193945,36.3884706 50.8193945,36.0016471 C50.8193945,35.6145882 50.2820229,35.3007059 49.6192569,35.3007059 L40.7394083,35.3007059 L22.588789,35.3007059 C21.9260229,35.3007059 21.3888853,35.6145882 21.3888853,36.0016471 C21.3888853,36.3884706 21.9260229,36.7021176 22.588789,36.7021176 L24.6395505,36.7021176 C25.3023165,36.7021176 25.8394541,37.016 25.8394541,37.4028235 C25.8394541,37.7898824 25.3023165,38.1035294 24.6395505,38.1035294 L14.879367,38.1035294 C14.2166009,38.1035294 13.6794633,38.4174118 13.6794633,38.8042353 C13.6794633,39.1912941 14.2166009,39.5049412 14.879367,39.5049412 L17.1860642,39.5049412 L38.9527706,39.5049412 Z" id="path-1_100_" fill="#FF3A2F"></path>
        <path d="M10.6180596,38.2378824 C11.364344,38.2378824 11.9693257,38.5835294 11.9693257,39.0101176 C11.9693257,39.4367059 11.364344,39.7823529 10.6180596,39.7823529 L6.477,39.7823529 C5.73048165,39.7823529 5.1255,39.4367059 5.1255,39.0101176 C5.1255,38.5835294 5.73048165,38.2378824 6.477,38.2378824 L10.6180596,38.2378824 Z" id="path-2_100_" fill="#FF3A2F"></path>
        <path d="M6.65175688,28.0712941 C6.65175688,26.2237647 3.32576147,21.0675294 3.32576147,21.0675294 C3.32576147,21.0675294 0,26.2237647 0,28.0712941 C0,29.9185882 1.48905963,31.4162353 3.32576147,31.4162353 C5.16269725,31.4162353 6.65175688,29.9185882 6.65175688,28.0712941 Z" id="path-3_100_" fill="#FF3A2F"></path>
        <path d="M3.32576147,21.0675294 C3.32576147,21.0675294 3.10678899,21.4075294 2.78300917,21.9404706 C3.76183486,23.6145882 5.10163761,26.1185882 5.10163761,27.2915294 C5.10163761,29.1392941 3.61257798,30.6367059 1.7756422,30.6367059 C1.55690367,30.6367059 1.34424771,30.6124706 1.13720642,30.572 C1.72323853,31.0910588 2.48355963,31.4162353 3.32576147,31.4162353 C5.16269725,31.4162353 6.65175688,29.9188235 6.65175688,28.0710588 C6.65175688,26.2237647 3.32576147,21.0675294 3.32576147,21.0675294 Z" id="path-4_100_" fill="#000000" opacity="0.35"></path>
        <polygon id="path-5_99_" fill="#142A3B" points="34.4963532 24.7835294 42.6285138 32.9618824 38.8498349 36.7621176 30.7181422 28.5835294"></polygon>
        <polygon id="path-6_96_" fill="#000000" opacity="0.35" points="34.4963532 24.7835294 36.5569404 26.8557647 32.7784954 30.656 30.7181422 28.5835294"></polygon>
        <path d="M39.2604083,34.2270588 C39.0435413,34.2270588 38.8271422,34.1437647 38.6615092,33.9771765 L36.6905229,31.9943529 C36.3594908,31.6618824 36.3594908,31.1223529 36.6905229,30.7898824 C37.0213211,30.4571765 37.557289,30.4571765 37.8880872,30.7898824 L39.8593073,32.7727059 C40.1901055,33.1054118 40.1901055,33.6449412 39.8593073,33.9771765 C39.6939083,34.1437647 39.4770413,34.2270588 39.2604083,34.2270588 Z" id="path-7_93_" fill="#FFFFFF"></path>
        <polygon id="path-8_72_" fill="#FBB713" points="36.7962661 15.8148235 21.0253349 31.6762353 8.61198165 19.1917647 24.3110917 3.42329412"></polygon>
        <polygon id="path-9_63_" fill="#000000" opacity="0.35" points="17.8834541 9.88752941 8.62204128 19.2018824 9.39733486 19.9811765 18.6585138 10.6670588"></polygon>
        <path d="M21.8956101,7.32235294 L25.0861514,4.20258824 L21.7182798,0.815294118 L20.9432202,1.59482353 L23.5357982,4.20258824 L20.0039312,7.75505882 L22.724711,10.4912941 C23.5210596,11.292 23.341156,12.3567059 22.5448073,13.1576471 C22.3468899,13.3569412 21.832445,13.0675294 21.5872706,13.1675294 C22.5448073,14.0063529 23.676633,14.0049412 24.2748303,13.4032941 C25.0711789,12.6025882 25.5772018,11.6355294 24.6163899,10.0588235 L21.8956101,7.32235294 Z" id="path-10_57_" fill="#000000" opacity="0.35"></path>
        <path d="M20.9432202,0.036 L5.25440367,15.8148235 L8.62204128,19.2018824 L17.8834541,9.88752941 L20.6044679,12.624 C21.4005826,13.4247059 22.703422,13.4247059 23.4997706,12.624 C24.2958853,11.8230588 24.2958853,10.5124706 23.4997706,9.71176471 L20.7789908,6.97552941 L24.3110917,3.42329412 L20.9432202,0.036 Z" id="path-11_48_" fill="#FF3A2F"></path>
        <polygon id="path-12_42_" fill="#142A3B" points="40.4104817 19.4496471 24.6395505 35.3108235 20.8611055 31.5110588 36.6320367 15.6496471"></polygon>
        <polygon id="path-13_33_" fill="#000000" opacity="0.35" points="36.6495826 15.6672941 20.8784174 31.5287059 20.4589541 31.1063529 35.7131009 14.7254118"></polygon>
      </g>
    </symbol>
    <symbol id="icon-letter" viewBox="0 0 32 36">
      <title>letter</title>
      <g>
        <rect id="Rectangle-path" fill="#F5EA0A" x="0.600784314" y="14.568" width="30.7425882" height="20.7964706"></rect>
        <polygon id="Shape" fill="#F8B517" points="15.9720784 0.553019608 0.600784314 14.568 15.9720784 28.6096471 31.3433725 14.568"></polygon>
        <polygon id="Shape" fill="#FCFCFD" points="4.16431373 17.8124706 15.6263529 28.2905098 16.3178039 28.2905098 27.7797647 17.8124706 27.7797647 4.80807843 4.16431373 4.80807843"></polygon>
        <rect id="Rectangle-path" fill="#71D456" x="7.83427451" y="8.37160784" width="16.2489412" height="1.11694118"></rect>
        <g id="Group" transform="translate(7.764706, 11.411765)" fill="#F1F3F7">
          <rect id="Rectangle-path" x="0.0695686275" y="0.071372549" width="16.2489412" height="1.11694118"></rect>
          <rect id="Rectangle-path" x="0.0695686275" y="3.44878431" width="16.2489412" height="1.11694118"></rect>
          <rect id="Rectangle-path" x="0.0695686275" y="6.82619608" width="16.2489412" height="1.11694118"></rect>
          <polygon id="Shape" points="15.8930196 10.177098 0.52172549 10.177098 1.74501961 11.3206275 14.6696471 11.3206275"></polygon>
          <polygon id="Shape" points="12.1964706 13.5545098 4.21827451 13.5545098 5.44156863 14.671451 10.973098 14.671451"></polygon>
        </g>
        <polygon id="Shape" fill="#FBD303" points="18.5516863 26.1629804 13.3924706 26.1629804 0.600784314 35.3910588 31.3433725 35.3910588"></polygon>
      </g>
    </symbol>
    <symbol id="icon-feebe-buggy" viewBox="0 0 38 59">
    <title>feebe-buggy</title>
      <g>
        <g transform="translate(4.354839, 0.000000)">
          <path d="M27.013472,12.7436632 C26.6271222,5.68232516 20.7356519,0.0734729891 13.5247604,0.0734729891 C6.06310602,0.0734729891 0.0141798743,6.077274 0.0141798743,13.480033 C0.0141798743,13.5827486 0.0200115698,13.6840175 0.0214694937,13.7867332 C0.0200115698,13.8373676 0.0141798743,13.8865554 0.0141798743,13.9386366 L0.0141798743,32.385496 C0.0141798743,35.4105437 2.50868762,37.8858458 5.55720643,37.8858458 L21.6074903,37.8858458 C24.6560091,37.8858458 27.1505169,35.4105437 27.1505169,32.385496 L27.1505169,13.9386366 C27.1505169,13.5277741 27.1009475,13.1299318 27.013472,12.7436632" id="Fill-5" fill="#FFFFFF"></path>
          <path d="M19.1828171,18.6363577 L7.98158804,18.6363577 C5.15613158,18.6363577 2.84386432,16.341893 2.84386432,13.5381903 C2.84386432,10.7330408 5.15613158,8.43857617 7.98158804,8.43857617 L19.1828171,8.43857617 C22.0082736,8.43857617 24.3205409,10.7330408 24.3205409,13.5381903 C24.3205409,16.341893 22.0082736,18.6363577 19.1828171,18.6363577" id="Fill-7" fill="#1B212D"></path>
          <path d="M11.1091884,13.3397032 C11.1091884,14.6692196 10.3335729,15.7470104 9.37717485,15.7470104 C8.41931887,15.7470104 7.64516129,14.6692196 7.64516129,13.3397032 C7.64516129,12.0116335 8.41931887,10.9338427 9.37717485,10.9338427 C10.3335729,10.9338427 11.1091884,12.0116335 11.1091884,13.3397032" id="Fill-9" fill="#6CE6D6"></path>
          <path d="M19.5285432,13.3397032 C19.5285432,14.6692196 18.7529277,15.7470104 17.7979876,15.7470104 C16.8401316,15.7470104 16.0645161,14.6692196 16.0645161,13.3397032 C16.0645161,12.0116335 16.8401316,10.9338427 17.7979876,10.9338427 C18.7529277,10.9338427 19.5285432,12.0116335 19.5285432,13.3397032" id="Fill-11" fill="#6CE6D6"></path>
          <path d="M21.6074903,35.9572513 L5.55720643,35.9572513 C2.50868762,35.9572513 0.0141798743,34.7318972 0.0141798743,31.7068495 L0.0141798743,32.3853514 C0.0141798743,35.410399 2.50868762,37.8857011 5.55720643,37.8857011 L21.6074903,37.8857011 C24.6560091,37.8857011 27.1505169,35.410399 27.1505169,32.3853514 L27.1505169,31.7068495 C27.1505169,34.7318972 24.6560091,35.9572513 21.6074903,35.9572513" id="Fill-15" fill="#31FFDC"></path>
          <path d="M8.14021016,37.0493644 C8.14021016,36.5979943 9.06599181,36.1972587 10.4743463,35.9571066 L5.55822698,35.9571066 C2.50970816,35.9571066 0.015200421,34.7317525 0.015200421,31.7081515 L0.015200421,32.3852067 C0.015200421,35.4102544 2.50970816,37.8855564 5.55822698,37.8855564 L9.37507167,37.8855564 C8.61403541,37.656978 8.14021016,37.3690849 8.14021016,37.0493644" id="Fill-17" fill="#6CE6D6"></path>
          <path d="M21.6074903,35.9572513 L16.691371,35.9572513 C18.0997255,36.1974033 19.0255072,36.5966923 19.0255072,37.0495091 C19.0255072,37.3692295 18.550224,37.6571227 17.7906456,37.8857011 L21.6074903,37.8857011 C24.6560091,37.8857011 27.1505169,35.410399 27.1505169,32.3853514 L27.1505169,31.7068495 C27.1505169,34.7318972 24.6560091,35.9572513 21.6074903,35.9572513" id="Fill-19" fill="#6CE6D6"></path>
          <path d="M0.0522802848,15.6223576 C0.0447476782,15.5119475 0.0146172515,15.3999602 0.0146172515,15.2879728 L0.0146172515,15.7879728 C0.0146172515,15.7311904 0.0447476782,15.6775627 0.0522802848,15.6223576" id="Fill-21" fill="#EBEBEB"></path>
          <path d="M27.013472,12.7436632 C26.6271222,5.68232516 20.7356519,0.0734729891 13.5247604,0.0734729891 C6.06310602,0.0734729891 0.0141798743,6.077274 0.0141798743,13.480033 C0.0141798743,13.5827486 0.0200115698,13.6840175 0.0214694937,13.7867332 C0.0200115698,13.8373676 0.0141798743,13.8865554 0.0141798743,13.9386366 L0.0141798743,15.2884068 C0.0141798743,7.8856478 6.06310602,1.88184679 13.5247604,1.88184679 C20.7356519,1.88184679 26.6271222,7.49069896 27.013472,14.552037 C27.1009475,14.9383056 27.1505169,15.3361479 27.1505169,15.7470104 L27.1505169,13.9386366 C27.1505169,13.5277741 27.1009475,13.1299318 27.013472,12.7436632" id="Fill-23" fill="#EBEBEB"></path>
        </g>
        <g transform="translate(27.000000, 0.000000)">
          <path d="M10.9561547,5.51177155 C10.9561547,8.53757243 8.52493846,10.9880839 5.52296272,10.9880839 C2.52235899,10.9880839 0.0897707778,8.53757243 0.0897707778,5.51177155 C0.0897707778,2.48735357 2.52235899,0.0354591582 5.52296272,0.0354591582 C8.52493846,0.0354591582 10.9561547,2.48735357 10.9561547,5.51177155" id="Fill-1" fill="#FFFFFF"></path>
          <path d="M9.21712163,5.51177155 C9.21712163,7.56815451 7.56383974,9.23594055 5.52364872,9.23594055 C3.48208569,9.23594055 1.8288038,7.56815451 1.8288038,5.51177155 C1.8288038,3.45538859 3.48208569,1.78898545 5.52364872,1.78898545 C7.56383974,1.78898545 9.21712163,3.45538859 9.21712163,5.51177155" id="Fill-3" fill="#1B212D"></path>
          <path d="M6.17327678,5.53364405 C6.17327678,6.37998324 5.68758234,7.06590519 5.08663839,7.06590519 C4.48706645,7.06590519 4,6.37998324 4,5.53364405 C4,4.68730486 4.48706645,4 5.08663839,4 C5.68758234,4 6.17327678,4.68730486 6.17327678,5.53364405" id="Fill-13" fill="#6CE6D6"></path>
          <path d="M5.52309992,0.899776139 C8.3768977,0.899776139 10.6914923,3.12487377 10.9137593,5.94323858 C10.9247354,5.79941624 10.9562919,5.65974261 10.9562919,5.51177155 C10.9562919,2.48735357 8.52507567,0.0354591582 5.52309992,0.0354591582 C2.52112417,0.0354591582 0.0899079796,2.48735357 0.0899079796,5.51177155 C0.0899079796,5.65974261 0.121464397,5.79941624 0.132440543,5.94323858 C0.354707486,3.12487377 2.66930213,0.899776139 5.52309992,0.899776139" id="Fill-25" fill="#EBEBEB"></path>
        </g>
      </g>
    </symbol>
    <symbol id="icon-feebe-head" viewBox="0 0 38 59">
    <title>feebe-head</title>
      <g>
        <path d="M17.1577775,10.0126623 L6.05150735,10.0126623 C3.25000383,10.0126623 0.957338925,7.78127706 0.957338925,5.05465368 C0.957338925,2.32662338 3.25000383,0.0952380952 6.05150735,0.0952380952 L17.1577775,0.0952380952 C19.959281,0.0952380952 22.2519459,2.32662338 22.2519459,5.05465368 C22.2519459,7.78127706 19.959281,10.0126623 17.1577775,10.0126623" id="Fill-7-Copy" fill="#1B212D"></path>
        <path d="M9.30094274,5.29209957 C9.30094274,6.58506494 8.53190256,7.63322511 7.58361241,7.63322511 C6.6338767,7.63322511 5.86628208,6.58506494 5.86628208,5.29209957 C5.86628208,4.00054113 6.6338767,2.95238095 7.58361241,2.95238095 C8.53190256,2.95238095 9.30094274,4.00054113 9.30094274,5.29209957" id="Fill-9-Copy" fill="#6CE6D6"></path>
        <path d="M17.6461461,5.29209957 C17.6461461,6.58506494 16.8771059,7.63322511 15.9302613,7.63322511 C14.9805256,7.63322511 14.2114854,6.58506494 14.2114854,5.29209957 C14.2114854,4.00054113 14.9805256,2.95238095 15.9302613,2.95238095 C16.8771059,2.95238095 17.6461461,4.00054113 17.6461461,5.29209957" id="Fill-11-Copy" fill="#6CE6D6"></path>
      </g>
    </symbol>
  </defs>
</svg>
