<svg xmlns="http://www.w3.org/2000/svg" xmlns:xlink="http://www.w3.org/1999/xlink"><symbol id="logo"><title>logo</title><path d="M9.128 14.83c0-.8-.28-1.568-.845-2.14-.536-.565-1.253-.872-2.017-.872-.77 0-1.486.307-2.047.872-.54.572-.846 1.34-.846 2.14 0 .797.305 1.545.845 2.136.56.57 1.277.877 2.046.877.764 0 1.48-.307 2.017-.877.564-.59.845-1.34.845-2.135zm3.222-5.534v11.096H9.637V19.31c-1.023.876-2.353 1.39-3.78 1.39C2.606 20.7 0 18.075 0 14.83c0-3.268 2.607-5.87 5.856-5.87 1.428 0 2.758.515 3.78 1.387l.255-1.05h2.46z" id="Fill-1" fill="#FFF"/><g id="Group-5" transform="translate(13.354 .51)"><mask id="mask-2" fill="#fff"><use xlink:href="#path-1"/></mask><path d="M8.75 4.25c-.18-.23-.612-.616-1.203-.616-1.79 0-1.92 2.345-1.92 3.065v2.086h3.3V11.8h-3.3v8.082H2.565V11.8h-2.1V8.786h2.1V6.7c0-1.805.455-3.322 1.354-4.43C4.812 1.163 6.116.544 7.548.544c1.328 0 2.584.593 3.53 1.676L8.75 4.25z" id="Fill-3" fill="#FFF" mask="url(#mask-2)"/></g><path id="Fill-6" fill="#FFF" d="M31.654 9.296v3.01H29.1v8.086h-3.25v-8.085h-2.3v-3.01h2.3V5.172h3.25v4.123z"/><path d="M41.63 13.904c-.13-.465-.36-.905-.692-1.26-.508-.572-1.226-.88-1.943-.88-.743 0-1.434.308-1.968.88-.307.355-.536.795-.692 1.26h5.294zm1.66 4.735c-1.048 1.26-2.66 2.06-4.425 2.06-3.22 0-5.855-2.652-5.855-5.896 0-3.27 2.634-5.896 5.855-5.896 3.225 0 5.855 2.625 5.855 5.896 0 .36-.023.697-.1 1.056h-8.233c.15.415.358.77.64 1.08.534.594 1.225.904 1.968.904.692 0 1.38-.31 1.89-.828l2.405 1.623z" id="Fill-8" fill="#FFF"/><path d="M49.328 10.555c.815-1.08 2.275-1.543 3.73-1.543.643 0 1.284.1 1.87.31l-1.252 2.856c-1.87-.827-3.76.308-4.094 2.088v6.126h-3.196V9.296h2.478l.464 1.26z" id="Fill-10" fill="#FFF"/><path d="M76.46 14.83c0-.8-.283-1.568-.847-2.14-.536-.565-1.253-.872-2.017-.872-.768 0-1.486.307-2.047.872-.54.572-.846 1.34-.846 2.14 0 .797.305 1.545.845 2.136.56.57 1.278.877 2.046.877.764 0 1.48-.307 2.017-.877.564-.59.846-1.34.846-2.135zm3.22-5.534v11.096h-2.71V19.31c-1.024.876-2.354 1.39-3.784 1.39-3.25 0-5.855-2.625-5.855-5.87 0-3.268 2.607-5.87 5.856-5.87 1.43 0 2.76.515 3.783 1.387l.253-1.05h2.457z" id="Fill-12" fill="#FFF"/><path d="M90.886 12.69c-.54-.59-1.257-.898-2.02-.898-.77 0-1.51.31-2.046.898-.536.572-.844 1.314-.844 2.113 0 .824.308 1.572.844 2.137.535.57 1.276.88 2.047.88.762 0 1.48-.31 2.02-.88.535-.565.842-1.313.842-2.137 0-.8-.308-1.54-.844-2.113zm-5.704-2.106c1.048-1.032 2.504-1.677 4.088-1.677 3.228 0 5.836 2.655 5.836 5.896 0 3.272-2.608 5.9-5.836 5.9-1.584 0-3.04-.62-4.088-1.678v9.428H82.19V9.296h2.764l.228 1.288z" id="Fill-14" fill="#FFF"/><g id="Group-18" transform="translate(97.15 8.6)"><mask id="mask-4" fill="#fff"><use xlink:href="#path-3"/></mask><path d="M9.002 4.09c-.538-.588-1.255-.897-2.02-.897-.77 0-1.51.31-2.046.898-.536.573-.844 1.314-.844 2.114 0 .823.308 1.57.844 2.137.535.57 1.276.88 2.047.88.764 0 1.48-.31 2.02-.88.535-.565.842-1.313.842-2.136 0-.8-.307-1.54-.843-2.113zM3.298 1.985C4.346.954 5.804.308 7.388.308c3.226 0 5.834 2.654 5.834 5.896 0 3.272-2.608 5.9-5.834 5.9-1.584 0-3.042-.62-4.09-1.678v9.428H.308V.697H3.07l.228 1.287z" id="Fill-16" fill="#FFF" mask="url(#mask-4)"/></g><path d="M63.776 7.195l.97-.908 10.698.037.062-3.044H63.558v.007l-.002-.005-5.817 5.424 2.215 2.41c1.35 1.59 1.302 1.485 1.302 1.485 1.65 1.95.587 3.763-.3 4.54-1.034.87-2.8 1.303-4.34-.485-.442-.512-.632-1.12-.72-1.74h-3.06c.112 1.336.61 2.647 1.527 3.71 1.557 1.81 3.262 2.24 4.438 2.293 1.47.05 2.93-.476 4.114-1.51 1.18-1.036 1.955-2.43 2.147-3.933.154-1.215.02-3.023-1.516-4.843L61.95 8.858l1.136-1.064.69-.6z" id="Fill-19" fill="#6CE6D6"/></symbol></svg>

