<svg style="position: absolute; width: 0; height: 0; overflow: hidden;" version="1.1" xmlns="http://www.w3.org/2000/svg">
  <defs>
    <symbol id="facebook" viewBox="0 0 176 126">
      <title>facebook</title>
      <g fill="none" fill-rule="evenodd">
        <g transform="rotate(-21 76.71 39.331)">
          <circle cx="10.5" cy="28.5" r="10.5" fill="#625BB3"/>
          <circle cx="43" cy="97" r="10" fill="#625BB3"/>
          <path stroke="#625BB3" stroke-linecap="square" d="M19.5 34.5l25 15M52.5 48.5l12-14M65.5 30.5l-12-21M78.5 108.5l-26-7"/>
          <circle cx="49" cy="52" r="5" fill="#625BB3"/>
          <circle cx="51" cy="5" r="5" fill="#625BB3"/>
          <circle cx="66" cy="32" r="3" fill="#625BB3"/>
          <circle cx="81" cy="109" r="3" fill="#625BB3"/>
          <path stroke="#625BB3" stroke-linecap="square" d="M48.5 56.5l-5 32"/>
        </g>
        <g fill="#D0CFFF" transform="translate(50)">
          <circle cx="62.746" cy="62.746" r="62.312" opacity=".03"/>
          <circle cx="62.746" cy="62.746" r="54.877" opacity=".071"/>
          <circle cx="62.746" cy="62.746" r="50.5" opacity=".28"/>
          <circle cx="62.746" cy="62.746" r="45.746" opacity=".432"/>
        </g>
        <path fill="#3B5998" d="M112.653 22.718c22.056 0 39.934 17.88 39.934 39.935 0 22.056-17.878 39.934-39.934 39.934-22.057 0-39.935-17.878-39.935-39.934 0-22.054 17.878-39.935 39.935-39.935z"/>
        <path fill="#FFF" d="M117.515 50.21h5.147v-7.602h-6.05v.027c-7.331.26-8.833 4.38-8.966 8.709h-.015v3.796h-4.992v7.445h4.992v19.957h7.523V62.585h6.162l1.19-7.445h-7.35v-2.294c0-1.462.974-2.635 2.359-2.635z"/>
        <g>
          <path fill="#3B5998" d="M112.653 22.718c22.056 0 39.934 17.88 39.934 39.935 0 22.056-17.878 39.934-39.934 39.934-22.057 0-39.935-17.878-39.935-39.934 0-22.054 17.878-39.935 39.935-39.935z"/>
          <path fill="#FFF" d="M117.515 50.21h5.147v-7.602h-6.05v.027c-7.331.26-8.833 4.38-8.966 8.709h-.015v3.796h-4.992v7.445h4.992v19.957h7.523V62.585h6.162l1.19-7.445h-7.35v-2.294c0-1.462.974-2.635 2.359-2.635z"/>
        </g>
      </g>
    </symbol>
    <symbol id="twitter" viewBox="0 0 165 126">
      <title>twitter</title>
      <g transform="rotate(113 75.49 86.747)">
        <circle cx="10.5" cy="29.5" r="10.5" fill="#625BB3"/>
        <circle cx="43" cy="98" r="10" fill="#625BB3"/>
        <path stroke="#625BB3" stroke-linecap="square" d="M19.5 35.5l25 15M54.44 52.55l27.875-8.542M52.5 49.5l12-14M66 31.043L68.635 7M78.5 109.5l-26-7"/>
        <circle cx="49" cy="53" r="5" fill="#625BB3"/>
        <circle cx="69" cy="5" r="5" fill="#625BB3"/>
        <circle cx="87" cy="43" r="5" fill="#625BB3"/>
        <circle cx="66" cy="33" r="3" fill="#625BB3"/>
        <circle cx="81" cy="110" r="3" fill="#625BB3"/>
        <path stroke="#625BB3" stroke-linecap="square" d="M48.5 57.5l-5 32"/>
      </g>
      <g fill="#D0CFFF">
        <circle cx="62.746" cy="62.746" r="62.312" opacity=".03"/>
        <circle cx="62.746" cy="62.746" r="54.877" opacity=".071"/>
        <circle cx="62.746" cy="62.746" r="50.5" opacity=".28"/>
        <circle cx="62.746" cy="62.746" r="45.746" opacity=".432"/>
      </g>
      <g transform="translate(23 23)">
        <circle cx="39.716" cy="39.715" r="39.715" fill="#55ACEE"/>
        <path fill="#F1F2F2" d="M64.043 28.542a18.94 18.94 0 0 1-5.453 1.493 9.519 9.519 0 0 0 4.175-5.25 19.004 19.004 0 0 1-6.028 2.302 9.484 9.484 0 0 0-6.931-2.996c-5.242 0-9.493 4.25-9.493 9.493 0 .744.084 1.468.247 2.163-7.89-.395-14.885-4.175-19.567-9.92a9.452 9.452 0 0 0-1.286 4.773c0 3.293 1.677 6.2 4.223 7.902a9.426 9.426 0 0 1-4.3-1.189v.12c0 4.6 3.273 8.437 7.615 9.308a9.503 9.503 0 0 1-4.287.164 9.503 9.503 0 0 0 8.869 6.593 19.047 19.047 0 0 1-11.792 4.064c-.764 0-1.522-.045-2.263-.133a26.852 26.852 0 0 0 14.55 4.265c17.462 0 27.011-14.465 27.011-27.01 0-.412-.01-.822-.028-1.228a19.25 19.25 0 0 0 4.738-4.914z"/>
      </g>
    </symbol>
  </defs>
</svg>
