<svg style="position: absolute; width: 0; height: 0; overflow: hidden;" version="1.1" xmlns="http://www.w3.org/2000/svg">
  <defs>
    <symbol id="facebook" viewBox="0 0 81 81">
      <title>facebook</title>
      <g fill="none" fill-rule="evenodd">
        <path fill="#3B5998" d="M40.653.718c22.056 0 39.934 17.88 39.934 39.935 0 22.056-17.878 39.934-39.934 39.934C18.596 80.587.718 62.71.718 40.653.718 18.599 18.596.718 40.653.718z"/>
        <path fill="#FFF" d="M45.515 28.21h5.147v-7.602h-6.05v.027c-7.331.26-8.833 4.38-8.966 8.709h-.015v3.796h-4.992v7.445h4.992v19.957h7.523V40.585h6.162l1.19-7.445h-7.35v-2.294c0-1.462.974-2.635 2.359-2.635z"/>
        <g>
          <path fill="#3B5998" d="M40.653.718c22.056 0 39.934 17.88 39.934 39.935 0 22.056-17.878 39.934-39.934 39.934C18.596 80.587.718 62.71.718 40.653.718 18.599 18.596.718 40.653.718z"/>
          <path fill="#FFF" d="M45.515 28.21h5.147v-7.602h-6.05v.027c-7.331.26-8.833 4.38-8.966 8.709h-.015v3.796h-4.992v7.445h4.992v19.957h7.523V40.585h6.162l1.19-7.445h-7.35v-2.294c0-1.462.974-2.635 2.359-2.635z"/>
        </g>
      </g>
    </symbol>
    <symbol id="twitter" viewBox="0 0 80 80">
      <title>twitter</title>
      <g fill="none" fill-rule="evenodd">
        <circle cx="39.716" cy="39.715" r="39.715" fill="#55ACEE"/>
        <path fill="#F1F2F2" d="M64.043 28.542a18.94 18.94 0 0 1-5.453 1.493 9.519 9.519 0 0 0 4.175-5.25 19.004 19.004 0 0 1-6.028 2.302 9.484 9.484 0 0 0-6.931-2.996c-5.242 0-9.493 4.25-9.493 9.493 0 .744.084 1.468.247 2.163-7.89-.395-14.885-4.175-19.567-9.92a9.452 9.452 0 0 0-1.286 4.773c0 3.293 1.677 6.2 4.223 7.902a9.426 9.426 0 0 1-4.3-1.189v.12c0 4.6 3.273 8.437 7.615 9.308a9.503 9.503 0 0 1-4.287.164 9.503 9.503 0 0 0 8.869 6.593 19.047 19.047 0 0 1-11.792 4.064c-.764 0-1.522-.045-2.263-.133a26.852 26.852 0 0 0 14.55 4.265c17.462 0 27.011-14.465 27.011-27.01 0-.412-.01-.822-.028-1.228a19.25 19.25 0 0 0 4.738-4.914z"/>
      </g>
    </symbol>
  </defs>
</svg>
