<svg xmlns="http://www.w3.org/2000/svg" xmlns:xlink="http://www.w3.org/1999/xlink" width="89.288" height="71.094" viewBox="522.712 396 89.288 71.094"><path fill="#FF1654" d="M530.145 440.676s-6.782-.97-7.24 2.907.05 12.546.05 12.546.612 2.396 2.55 1.325c1.53-.867.408-8.21 1.632-10.71 1.122-2.295 3.06-1.99 3.06-1.99"/><path opacity=".22" d="M523.107 443.583c-.51 3.876-.052 12.546-.052 12.546s.562 1.53 1.734 1.58c-.307-6.07-1.94-15.402 5.812-15.504v-1.53c-.05 0-7.036-.97-7.495 2.907z"/><path fill="#FF1654" d="M559.827 441.186s6.783-1.02 7.293 2.856.05 12.546.05 12.546-.61 2.397-2.55 1.326c-1.58-.816-.51-8.21-1.733-10.71-1.122-2.295-3.06-1.938-3.06-1.938"/><path opacity=".22" d="M567.17 444.042c.51 3.876 0 12.546 0 12.546s-.305 1.53-1.478 1.58c.255-6.068 1.274-15.4-5.712-15.452v-1.53s6.68-1.02 7.19 2.856z"/><path fill="#5B5B5B" d="M545.19 454.548h-.357l-8.466.05s.102 2.908.46 5.765c0 0 6.985.255 8.21.102 1.224.153 8.16-.255 8.16-.255.356-2.856.408-5.712.408-5.712l-8.415.05z"/><path opacity=".22" fill="#020202" d="M545.19 454.548h-.306l-8.466.05s.255 1.072.612 2.144c0 0 6.782.102 8.363.05v3.826c.766.152 8.008-.153 8.008-.153.357-3.06.256-5.916.256-5.916h-8.466z"/><path fill="#898989" d="M556.348 455.69l-22.39.098-.012-2.703 22.39-.098z"/><g><path fill="#4E5F60" d="M545.598 397.683c.052.052.103.052.153.103-.1-.052-.1-.052-.152-.103zM545.292 397.48c.05 0 .05.05.102.05-.05 0-.05-.05-.102-.05zM545.75 397.836c.052.05.103.05.154.102-.05-.05-.102-.102-.153-.102zM545.445 397.58c.05.052.05.052.102.103-.05-.05-.05-.102-.102-.102zM543.915 397.938c.05-.05.102-.05.153-.102-.05 0-.102.05-.153.102zM545.955 397.938c.05.052.102.103.153.153l-.153-.152zM543.252 398.5c.102-.052.153-.154.204-.205-.05.05-.102.153-.204.204zM544.425 397.53c.05-.052.05-.052.103-.052-.052 0-.052.052-.103.052zM544.578 397.428c.05 0 .05-.05.102-.05-.05.05-.102.05-.102.05zM545.088 397.326c.05 0 .05.05.103.05-.05-.05-.102-.05-.102-.05zM544.27 397.683c.053-.05.053-.05.104-.102 0 0-.05.052-.103.103zM544.12 397.785c.05-.05.1-.05.1-.103 0 .052-.05.052-.1.103zM545.19 397.377c.05 0 .05.05.102.05-.05 0-.05 0-.102-.05zM546.363 398.295c.05.05.152.103.204.204-.05-.103-.153-.154-.204-.205zM544.68 397.377c.05 0 .05-.05.103-.05-.053 0-.103 0-.103.05zM543.71 398.09c.052-.05.103-.1.154-.152 0 .05-.05.102-.153.153zM554.37 407.73c-2.805-4.59-5.967-7.65-7.803-9.23 1.887 1.58 4.998 4.59 7.803 9.23zM543.252 398.5c-1.836 1.58-4.947 4.64-7.752 9.28 2.805-4.64 5.916-7.7 7.752-9.28zM554.37 408.036l-18.87.102c-3.366 4.642-6.222 13.21-5.967 23.358l.56 23.154 14.894-.052h.306l14.84-.05.41-23.155c.202-10.2-2.756-18.716-6.173-23.357zM543.507 398.295c.05-.05.153-.102.204-.153-.05.05-.152.102-.203.153zM546.16 398.142c.05.052.1.103.203.153-.102-.05-.153-.102-.204-.153z"/><path fill="#2B4448" d="M554.37 408.24v-.255c-2.805-4.59-5.967-7.804-7.803-9.333v-.052c-.052-.05-.153-.152-.204-.203l-.153.152c-.05-.052-.306.05-.357 0l-.05-.052s.05-.255 0-.306l.05-.103c-.05-.052-.05-.103-.102-.154v-.05l-.1-.103-.053-.05c-.05-.053-.05-.053-.102-.104l-.05-.052c-.052 0-.052-.05-.104-.05l-.05-.053c-.05 0-.05-.05-.102-.05h-.204c-.05 0-.307-.052-.307-.052v-.102s.052 0 0 .052c-.05-.05 0-.05 0-.05v.1s0 .052-.05.052c-.052 0-.052.05-.052.05-.05 0-.05.053-.102.053l-.052.05-.1.103s-.052 0-.052.052c-.05.05-.103.05-.103.102 0 0-.05 0-.05.05-.052.052-.103.052-.154.104 0 0-.05 0-.05.05-.05.052-.102.103-.153.154h-.05c-.052.05-.103.102-.205.152v-.46c-.05.052-.152-.305-.204-.305-1.836 2.55-5.15 5.405-7.445 10.046v.51l18.517.104z"/><path opacity=".22" fill="#020202" d="M544.986 397.275s15.963 10.76 15.605 33.915c-.355 23.153-.407 23.307-.407 23.307l-14.84.05"/><circle fill="#4E5F60" cx="544.935" cy="421.551" r="8.211"/><circle opacity=".22" cx="544.935" cy="421.551" r="8.211"/><circle fill="#4E5F60" cx="544.935" cy="421.551" r="6.936"/><circle fill="#70C1B3" cx="544.935" cy="421.551" r="5.508"/><path opacity=".22" fill="#020202" d="M547.587 441.645c0-1.58-1.58-2.855-2.346-2.906l.052 15.81h2.346l-.05-12.905z"/><path opacity=".22" d="M545.088 416.043h.103l.052 11.016h-.103c3.06 0 5.508-2.5 5.508-5.56s-2.5-5.457-5.56-5.457z"/></g><g><path fill="#5C6D6D" d="M554.88 450.927h-4.08c-.56 0-1.02-.46-1.02-1.02v-11.373c0-.562.46-1.02 1.02-1.02h4.08c.562 0 1.02.458 1.02 1.02v11.373c0 .56-.46 1.02-1.02 1.02z"/><path opacity=".22" d="M555.186 437.514c.153.153.204.408.204.612v11.27c0 .562-.51 1.122-1.07 1.122h-4.08c-.103 0-.255.052-.357.052.204.204.46.46.766.46h4.078c.562 0 1.122-.767 1.122-1.327v-11.27c.05-.41-.256-.766-.664-.92z"/><circle fill="#FF1654" cx="553.656" cy="449.091" r=".561"/><g opacity=".22"><defs><circle id="a" cx="553.656" cy="449.091" r=".561"/></defs><clipPath id="b"><use xlink:href="#a" overflow="visible"/></clipPath><path clip-path="url(#b)" fill="#070707" d="M553.656 447.153h1.785v3.927h-1.784z"/></g><path fill="#2B4448" d="M554.268 441.9h-1.428v-1.02h1.428c.256 0 .51.152.612.407-.05-.255-.255-.408-.51-.408h-2.805c-.307 0-.715.203-.715.51 0 .306.408.51.715.51h2.805c.255 0 .46-.153.51-.408-.102.255-.357.408-.612.408z"/><path opacity=".22" fill="#020202" d="M554.83 441.543c0-.05.05-.102.05-.153 0 .05 0 .102-.05.153zM554.83 441.237c0 .05.05.102.05.152 0-.05 0-.102-.05-.153z"/><path fill="#2B4448" d="M554.88 441.39c0-.05 0-.102-.05-.152-.104-.204-.358-.357-.613-.357h-1.428v1.022h1.427c.255 0 .51-.153.612-.357.05-.053.05-.104.05-.155z"/><path opacity=".22" fill="#020202" d="M554.88 441.39c0-.05 0-.102-.05-.152-.104-.204-.358-.357-.613-.357h-1.428v1.022h1.427c.255 0 .51-.153.612-.357.05-.053.05-.104.05-.155z"/><path fill="#2B4448" d="M554.268 440.37h-1.428v-1.02h1.428c.256 0 .51.152.612.407-.05-.255-.255-.408-.51-.408h-2.805c-.307 0-.715.203-.715.51 0 .306.408.51.715.51h2.805c.255 0 .46-.153.51-.408-.102.255-.357.408-.612.408z"/><path opacity=".22" fill="#020202" d="M554.83 440.013c0-.05.05-.102.05-.152 0 .05 0 .102-.05.153zM554.83 439.707c0 .05.05.102.05.153 0-.05 0-.102-.05-.153z"/><path fill="#2B4448" d="M554.88 439.86c0-.052 0-.103-.05-.153-.104-.204-.358-.357-.613-.357h-1.428v1.02h1.427c.255 0 .51-.152.612-.356.05-.052.05-.103.05-.154z"/><path opacity=".22" fill="#020202" d="M554.88 439.86c0-.052 0-.103-.05-.153-.104-.204-.358-.357-.613-.357h-1.428v1.02h1.427c.255 0 .51-.152.612-.356.05-.052.05-.103.05-.154z"/><path fill="#02C39A" d="M554.268 443.43h-1.428v-1.02h1.428c.256 0 .51.152.612.408-.05-.256-.255-.408-.51-.408h-2.805c-.307 0-.715.204-.715.51 0 .306.408.51.715.51h2.805c.255 0 .46-.152.51-.407-.102.254-.357.407-.612.407z"/><path opacity=".22" fill="#020202" d="M554.83 442.767c0 .052.05.103.05.153 0-.05 0-.102-.05-.153z"/><path opacity=".22" fill="#020202" d="M554.83 443.073c0-.05.05-.103.05-.153 0 .05 0 .102-.05.153z"/><path fill="#02C39A" d="M554.88 442.92c0-.05 0-.102-.05-.153-.104-.204-.358-.356-.613-.356h-1.428v1.02h1.427c.255 0 .51-.15.612-.355.05-.053.05-.104.05-.155z"/><path opacity=".22" fill="#020202" d="M554.88 442.92c0-.05 0-.102-.05-.153-.104-.204-.358-.356-.613-.356h-1.428v1.02h1.427c.255 0 .51-.15.612-.355.05-.053.05-.104.05-.155z"/><g><path fill="#02C39A" d="M554.268 444.96h-1.428v-1.02h1.428c.256 0 .51.152.612.407-.05-.255-.255-.407-.51-.407h-2.805c-.307 0-.715.203-.715.51 0 .306.408.51.715.51h2.805c.255 0 .46-.153.51-.408-.102.255-.357.408-.612.408z"/><path opacity=".22" fill="#020202" d="M554.83 444.297c0 .05.05.103.05.153 0-.05 0-.102-.05-.153zM554.83 444.603c0-.05.05-.102.05-.152 0 .05 0 .102-.05.153z"/><path fill="#02C39A" d="M554.88 444.45c0-.05 0-.103-.05-.153-.104-.204-.358-.356-.613-.356h-1.428v1.02h1.427c.255 0 .51-.152.612-.356.05-.052.05-.103.05-.154z"/><path opacity=".22" fill="#020202" d="M554.88 444.45c0-.05 0-.103-.05-.153-.104-.204-.358-.356-.613-.356h-1.428v1.02h1.427c.255 0 .51-.152.612-.356.05-.052.05-.103.05-.154z"/></g><g><path fill="#02C39A" d="M554.268 446.49h-1.428v-1.02h1.428c.256 0 .51.152.612.407-.05-.255-.255-.408-.51-.408h-2.805c-.307 0-.715.203-.715.51 0 .306.408.51.715.51h2.805c.255 0 .46-.153.51-.408-.102.255-.357.408-.612.408z"/><path opacity=".22" fill="#020202" d="M554.83 445.827c0 .05.05.102.05.153 0-.05 0-.102-.05-.153zM554.83 446.133c0-.05.05-.102.05-.152 0 .05 0 .102-.05.153z"/><path fill="#02C39A" d="M554.88 445.98c0-.052 0-.103-.05-.153-.104-.204-.358-.357-.613-.357h-1.428v1.02h1.427c.255 0 .51-.152.612-.356.05-.052.05-.103.05-.154z"/><path opacity=".22" fill="#020202" d="M554.88 445.98c0-.052 0-.103-.05-.153-.104-.204-.358-.357-.613-.357h-1.428v1.02h1.427c.255 0 .51-.152.612-.356.05-.052.05-.103.05-.154z"/></g><g><path fill="#02C39A" d="M554.268 448.02h-1.428V447h1.428c.256 0 .51.153.612.408-.05-.255-.255-.408-.51-.408h-2.805c-.307 0-.715.204-.715.51 0 .307.408.51.715.51h2.805c.255 0 .46-.152.51-.407-.102.254-.357.407-.612.407z"/><path opacity=".22" fill="#020202" d="M554.83 447.357c0 .05.05.102.05.152 0-.05 0-.102-.05-.153zM554.83 447.663c0-.05.05-.103.05-.153 0 .05 0 .102-.05.153z"/><path fill="#02C39A" d="M554.88 447.51c0-.05 0-.102-.05-.152-.104-.204-.358-.357-.613-.357h-1.428v1.02h1.427c.255 0 .51-.15.612-.355.05-.053.05-.104.05-.155z"/><path opacity=".22" fill="#020202" d="M554.88 447.51c0-.05 0-.102-.05-.152-.104-.204-.358-.357-.613-.357h-1.428v1.02h1.427c.255 0 .51-.15.612-.355.05-.053.05-.104.05-.155z"/></g><path fill="#C5C3C6" d="M585.633 464.85H552.33v-15.555c0-.408-.357-.765-.765-.765-.408 0-.766.356-.766.765v16.37c0 .103-.052.052 0 .103.05.408.305.562.713.562h34.17c.408 0 .867-.204.867-.663v-.05c-.05-.36-.51-.767-.917-.767z"/><g opacity=".22"><defs><path id="c" d="M585.633 464.85H552.33v-15.555c0-.408-.357-.765-.765-.765-.408 0-.766.356-.766.765v16.37c0 .103-.052.052 0 .103.05.408.305.562.713.562h34.17c.408 0 .867-.204.867-.663v-.05c-.05-.36-.51-.767-.917-.767z"/></defs><clipPath id="d"><use xlink:href="#c" overflow="visible"/></clipPath><path clip-path="url(#d)" fill="#050505" d="M589.56 465.207h-37.23c-.306 0-.51-.204-.51-.51v-20.043c0-.307.204-.51.51-.51h37.23c.306 0 .51.203.51.51v20.043c0 .255-.204.51-.51.51z"/></g><path fill="#ACACAD" d="M602.973 464.85H589.56v1.53h13.413c.408 0 .867-.204.867-.663v-.05c0-.41-.46-.817-.867-.817z"/><g opacity=".22"><defs><path id="e" d="M602.973 464.85H589.56v1.53h13.413c.408 0 .867-.204.867-.663v-.05c0-.41-.46-.817-.867-.817z"/></defs><clipPath id="f"><use xlink:href="#e" overflow="visible"/></clipPath><path clip-path="url(#f)" fill="#050505" d="M584.205 459.495h22.797v5.865h-22.797z"/></g><path fill="#EF8354" d="M589.458 467.094h-3.825c-.56 0-1.02-.46-1.02-1.02v-.97c0-.56.46-1.02 1.02-1.02h3.825c.56 0 1.02.46 1.02 1.02v.97c0 .56-.46 1.02-1.02 1.02z"/><g opacity=".22"><defs><path id="g" d="M589.305 467.094h-3.57c-.61 0-1.173-.51-1.173-1.173v-.713c0-.612.51-1.173 1.174-1.173h3.57c.61 0 1.173.51 1.173 1.173v.714c0 .664-.563 1.174-1.175 1.174z"/></defs><clipPath id="h"><use xlink:href="#g" overflow="visible"/></clipPath><path clip-path="url(#h)" fill="#070505" d="M587.52 460.515h10.2v8.67h-10.2z"/></g><path fill="#FFED66" d="M587.418 460.974c-.153 0-.306-.152-.306-.306v-4.947c0-.15.152-.305.306-.305.153 0 .306.153.306.306v4.948c0 .204-.153.306-.306.306zM590.223 461.79c-.152-.103-.152-.306 0-.46l3.417-3.62c.103-.153.307-.153.46 0 .152.103.152.306 0 .46l-3.418 3.62c-.153.102-.357.102-.46 0zM585.123 461.79c.153-.103.153-.306 0-.46l-3.417-3.62c-.102-.153-.306-.153-.46 0-.152.103-.152.306 0 .46l3.418 3.62c.153.102.357.102.46 0z"/></g><g><path fill="#FF1654" d="M545.65 458.526h-1.226c-.663 0-1.173-.51-1.173-1.174l-.05-15.045c0-.663.51-1.173 1.173-1.173h1.224c.663 0 1.174.51 1.174 1.173l.052 15.045c0 .664-.56 1.174-1.173 1.174z"/><path opacity=".22" fill="#020202" d="M545.088 441.39h.05c-.05 0 .104-.102.104-.102l.05 17.34s-.152.103-.1.103h-.053c.97 0 1.683-.97 1.683-1.937l-.05-13.77c.05-.97-.665-1.633-1.685-1.633z"/></g></svg>