<svg xmlns="http://www.w3.org/2000/svg" xmlns:xlink="http://www.w3.org/1999/xlink" viewBox="1024.9 152.5 152.6 132.2"><path fill="#FF1654" d="M1038.9 234.1s-12.8-1.8-13.6 5.5.1 23.6.1 23.6 1.2 4.5 4.8 2.5c2.9-1.6.8-15.4 3.1-20.1 2.1-4.3 5.8-3.7 5.8-3.7"/><path opacity=".22" d="M1025.7 239.6c-1 7.3-.1 23.6-.1 23.6s1.1 2.9 3.3 3c-.6-11.4-3.6-29 10.9-29.2v-2.9c-.1 0-13.3-1.8-14.1 5.5z"/><path fill="#FF1654" d="M1094.7 235.1s12.8-1.9 13.7 5.4c1 7.3.1 23.6.1 23.6s-1.2 4.5-4.8 2.5c-3-1.5-1-15.4-3.3-20.1-2.1-4.3-5.8-3.6-5.8-3.6"/><path opacity=".22" d="M1108.5 240.5c1 7.3 0 23.6 0 23.6s-.6 2.9-2.8 3c.5-11.4 2.4-29-10.7-29.1v-2.9s12.6-1.9 13.5 5.4z"/><path fill="#5B5B5B" d="M1067.2 260.2h-.7l-15.9.1s.2 5.5.9 10.8c0 0 13.1.5 15.4.2 2.3.3 15.3-.5 15.3-.5.7-5.4.8-10.7.8-10.7l-15.8.1z"/><path opacity=".22" fill="#020202" d="M1067.2 260.2h-.6l-15.9.1s.5 2 1.2 4c0 0 12.8.2 15.7.1v7.2c1.4.3 15.1-.3 15.1-.3.7-5.8.5-11.1.5-11.1h-16z"/><path fill="#898989" d="M1088.222 262.362l-42.1.183-.022-5.1 42.1-.183z"/><g><path fill="#2B4448" d="M1069.7 155.1c-.2-.4-.5-.7-.8-.9-.1-.1-.3-.3-.5-.4-.4-.4-.9-.9-1.4-1-.2-.2-.6-.2-.7 0-.1 0-.1 0-.2.1-.3.3-.7.5-1 .8-.2.1-.4.3-.6.5-.1.1-.2.1-.3.2 0 .1-.1.1-.1.2-.1 0-.1.1-.2.1-.3.3-.1.6.2.7H1064.4c.2-.1.4-.2.6-.4h.1c.2-.1.3-.3.5-.4.2-.2.5-.4.7-.6.1-.1.2-.1.2-.2.2.3.5.5.8.6h.2c0 .2.1.3.3.4.1 0 .2.1.3.1.3.3.5.7.8.9.6.2 1-.3.8-.7z"/><path fill="#4E5F60" d="M1068 153.3c.1.1.2.1.3.2-.2-.1-.2-.1-.3-.2zM1067.4 152.9c.1 0 .1.1.2.1-.1 0-.1-.1-.2-.1zM1068.3 153.6c.1.1.2.1.3.2-.2-.1-.3-.2-.3-.2zM1067.7 153.1l.2.2c-.1-.1-.1-.2-.2-.2zM1064.8 153.7c.1-.1.2-.1.3-.2-.1.1-.2.2-.3.2zM1068.6 153.7l.3.3-.3-.3zM1065.8 153c.1-.1.1-.1.2-.1-.1 0-.1.1-.2.1zM1066 152.8c.1 0 .1-.1.2-.1-.1.1-.2.1-.2.1zM1067 152.6c.1 0 .1.1.2.1-.1-.1-.2-.1-.2-.1zM1065.5 153.3l.2-.2-.2.2zM1065.2 153.5c.1-.1.2-.1.2-.2 0 .1-.1.1-.2.2zM1067.2 152.7c.1 0 .1.1.2.1-.1 0-.1 0-.2-.1zM1069.4 154.4c.1.1.3.2.4.4-.1-.2-.3-.3-.4-.4zM1066.2 152.7c.1 0 .1-.1.2-.1-.1 0-.2 0-.2.1zM1064.4 154l.3-.3c0 .1-.1.2-.3.3zM1084.5 172.2c-5.3-8.6-11.2-14.4-14.7-17.4 3.5 3 9.4 8.6 14.7 17.4zM1063.6 154.8c-3.5 3-9.3 8.7-14.6 17.5 5.3-8.8 11.1-14.5 14.6-17.5zM1084.5 172.7l-35.5.2c-6.3 8.7-11.7 24.8-11.2 43.9l1.1 43.5 28-.1h.6l27.9-.1.8-43.5c.3-19.1-5.3-35.1-11.7-43.9zM1069 154.1c.1.1.2.2.4.3-.2-.1-.3-.2-.4-.3z"/><path fill="#2B4448" d="M1069.8 155.1c-.1-.2-.3-.4-.4-.5l-.3.3c-.1-.1-.6.1-.7 0l-.1-.1c-.1-.1.1-.5 0-.6l.1-.2c-.1-.1-.1-.2-.2-.3v-.1l-.2-.2-.1-.1-.2-.2-.1-.1c-.1 0-.1-.1-.2-.1l-.1-.1c-.1 0-.1-.1-.2-.1h-.4c-.1 0-.6-.1-.6-.1s0 .1-.1.1-.1.1-.1.1c-.1 0-.1.1-.2.1l-.1.1-.2.2s-.1 0-.1.1c-.1.1-.2.1-.2.2 0 0-.1 0-.1.1-.1.1-.2.1-.3.2 0 0-.1 0-.1.1l-.3.3h-.1c-.1.1-.2.2-.4.3v-.1c-.2.1-.4.2-.6.4-1.2 1.2-2.7 2.1-4 3.3-.1.1-.2.2-.3.4-3.1 3.6-6.7 7.8-9.5 13.5v1l34.8.2v-.5c-5-8.7-11-14.7-14.4-17.6z"/><path opacity=".22" fill="#020202" d="M1066.8 152.5s30 20.2 29.3 63.8c-.7 43.5-.8 43.8-.8 43.8l-27.9.1"/><circle fill="#4E5F60" cx="1066.7" cy="198.2" r="15.4"/><circle opacity=".22" cx="1066.7" cy="198.2" r="15.4"/><circle fill="#4E5F60" cx="1066.7" cy="198.2" r="13"/><circle fill="#70C1B3" cx="1066.7" cy="198.2" r="10.4"/><path opacity=".22" fill="#020202" d="M1071.7 235.9c0-3-3-5.4-4.4-5.5l.1 29.7h4.4l-.1-24.2z"/><path opacity=".22" d="M1067 187.8h.2l.1 20.7h-.2c5.8 0 10.4-4.7 10.4-10.5s-4.7-10.2-10.5-10.2z"/></g><g><path fill="#5C6D6D" d="M1085.4 253.4h-7.7c-1.1 0-1.9-.9-1.9-1.9v-21.4c0-1.1.9-1.9 1.9-1.9h7.7c1.1 0 1.9.9 1.9 1.9v21.4c0 1-.8 1.9-1.9 1.9z"/><path opacity=".22" d="M1086 228.2c.3.3.4.8.4 1.2v21.2c0 1.1-1 2.1-2 2.1h-7.7c-.2 0-.5.1-.7.1.4.4.9.9 1.4.9h7.7c1.1 0 2.1-1.4 2.1-2.5V230c.1-.9-.4-1.5-1.2-1.8z"/><circle fill="#FF1654" cx="1083.1" cy="249.9" r="1.1"/><g opacity=".22"><defs><circle id="a" cx="1083.1" cy="249.9" r="1.1"/></defs><clipPath id="b"><use xlink:href="#a" overflow="visible"/></clipPath><path clip-path="url(#b)" fill="#070707" d="M1083.1 246.3h3.4v7.4h-3.4z"/></g><path fill="#2B4448" d="M1084.3 236.4h-2.7v-1.9h2.7c.5 0 1 .3 1.2.8-.1-.5-.5-.8-1-.8h-5.3c-.6 0-1.3.4-1.3 1s.8 1 1.3 1h5.3c.5 0 .9-.3 1-.8-.3.4-.7.7-1.2.7z"/><path opacity=".22" fill="#020202" d="M1085.3 235.8c0-.1.1-.2.1-.3 0 .1 0 .2-.1.3zM1085.3 235.2c0 .1.1.2.1.3 0-.1 0-.2-.1-.3z"/><path fill="#2B4448" d="M1085.4 235.5c0-.1 0-.2-.1-.3-.2-.4-.7-.7-1.2-.7h-2.7v1.9h2.7c.5 0 1-.3 1.2-.7.1 0 .1-.1.1-.2z"/><path opacity=".22" fill="#020202" d="M1085.4 235.5c0-.1 0-.2-.1-.3-.2-.4-.7-.7-1.2-.7h-2.7v1.9h2.7c.5 0 1-.3 1.2-.7.1 0 .1-.1.1-.2z"/><path fill="#2B4448" d="M1084.3 233.5h-2.7v-1.9h2.7c.5 0 1 .3 1.2.8-.1-.5-.5-.8-1-.8h-5.3c-.6 0-1.3.4-1.3 1s.8 1 1.3 1h5.3c.5 0 .9-.3 1-.8-.3.5-.7.7-1.2.7z"/><path opacity=".22" fill="#020202" d="M1085.3 232.9c0-.1.1-.2.1-.3 0 .1 0 .2-.1.3z"/><path opacity=".22" fill="#020202" d="M1085.3 232.3c0 .1.1.2.1.3 0-.1 0-.2-.1-.3z"/><path fill="#2B4448" d="M1085.4 232.6c0-.1 0-.2-.1-.3-.2-.4-.7-.7-1.2-.7h-2.7v1.9h2.7c.5 0 1-.3 1.2-.7.1 0 .1-.1.1-.2z"/><path opacity=".22" fill="#020202" d="M1085.4 232.6c0-.1 0-.2-.1-.3-.2-.4-.7-.7-1.2-.7h-2.7v1.9h2.7c.5 0 1-.3 1.2-.7.1 0 .1-.1.1-.2z"/><path fill="#02C39A" d="M1084.3 239.3h-2.7v-1.9h2.7c.5 0 1 .3 1.2.8-.1-.5-.5-.8-1-.8h-5.3c-.6 0-1.3.4-1.3 1s.8 1 1.3 1h5.3c.5 0 .9-.3 1-.8-.3.4-.7.7-1.2.7z"/><path opacity=".22" fill="#020202" d="M1085.3 238.1c0 .1.1.2.1.3 0-.2 0-.2-.1-.3z"/><path opacity=".22" fill="#020202" d="M1085.3 238.6c0-.1.1-.2.1-.3 0 .1 0 .2-.1.3z"/><path fill="#02C39A" d="M1085.4 238.3c0-.1 0-.2-.1-.3-.2-.4-.7-.7-1.2-.7h-2.7v1.9h2.7c.5 0 1-.3 1.2-.7.1 0 .1-.1.1-.2z"/><path opacity=".22" fill="#020202" d="M1085.4 238.3c0-.1 0-.2-.1-.3-.2-.4-.7-.7-1.2-.7h-2.7v1.9h2.7c.5 0 1-.3 1.2-.7.1 0 .1-.1.1-.2z"/><g><path fill="#02C39A" d="M1084.3 242.2h-2.7v-1.9h2.7c.5 0 1 .3 1.2.8-.1-.5-.5-.8-1-.8h-5.3c-.6 0-1.3.4-1.3 1s.8 1 1.3 1h5.3c.5 0 .9-.3 1-.8-.3.4-.7.7-1.2.7z"/><path opacity=".22" fill="#020202" d="M1085.3 240.9c0 .1.1.2.1.3 0-.1 0-.2-.1-.3z"/><path opacity=".22" fill="#020202" d="M1085.3 241.5c0-.1.1-.2.1-.3 0 .1 0 .2-.1.3z"/><path fill="#02C39A" d="M1085.4 241.2c0-.1 0-.2-.1-.3-.2-.4-.7-.7-1.2-.7h-2.7v1.9h2.7c.5 0 1-.3 1.2-.7.1 0 .1-.1.1-.2z"/><path opacity=".22" fill="#020202" d="M1085.4 241.2c0-.1 0-.2-.1-.3-.2-.4-.7-.7-1.2-.7h-2.7v1.9h2.7c.5 0 1-.3 1.2-.7.1 0 .1-.1.1-.2z"/></g><g><path fill="#02C39A" d="M1084.3 245.1h-2.7v-1.9h2.7c.5 0 1 .3 1.2.8-.1-.5-.5-.8-1-.8h-5.3c-.6 0-1.3.4-1.3 1s.8 1 1.3 1h5.3c.5 0 .9-.3 1-.8-.3.4-.7.7-1.2.7z"/><path opacity=".22" fill="#020202" d="M1085.3 243.8c0 .1.1.2.1.3 0-.1 0-.2-.1-.3z"/><path opacity=".22" fill="#020202" d="M1085.3 244.4c0-.1.1-.2.1-.3 0 .1 0 .2-.1.3z"/><path fill="#02C39A" d="M1085.4 244.1c0-.1 0-.2-.1-.3-.2-.4-.7-.7-1.2-.7h-2.7v1.9h2.7c.5 0 1-.3 1.2-.7.1 0 .1-.1.1-.2z"/><path opacity=".22" fill="#020202" d="M1085.4 244.1c0-.1 0-.2-.1-.3-.2-.4-.7-.7-1.2-.7h-2.7v1.9h2.7c.5 0 1-.3 1.2-.7.1 0 .1-.1.1-.2z"/></g><g><path fill="#02C39A" d="M1084.3 247.9h-2.7V246h2.7c.5 0 1 .3 1.2.8-.1-.5-.5-.8-1-.8h-5.3c-.6 0-1.3.4-1.3 1s.8 1 1.3 1h5.3c.5 0 .9-.3 1-.8-.3.4-.7.7-1.2.7z"/><path opacity=".22" fill="#020202" d="M1085.3 246.7c0 .1.1.2.1.3 0-.1 0-.2-.1-.3zM1085.3 247.3c0-.1.1-.2.1-.3 0 .1 0 .2-.1.3z"/><path fill="#02C39A" d="M1085.4 247c0-.1 0-.2-.1-.3-.2-.4-.7-.7-1.2-.7h-2.7v1.9h2.7c.5 0 1-.3 1.2-.7.1 0 .1-.1.1-.2z"/><path opacity=".22" fill="#020202" d="M1085.4 247c0-.1 0-.2-.1-.3-.2-.4-.7-.7-1.2-.7h-2.7v1.9h2.7c.5 0 1-.3 1.2-.7.1 0 .1-.1.1-.2z"/></g><path fill="#C5C3C6" d="M1143.3 279.6h-62.6v-29.3c0-.8-.7-1.4-1.4-1.4s-1.4.7-1.4 1.4v30.8c0 .2-.1.1 0 .2.1.8.6 1.1 1.3 1.1h64.3c.8 0 1.6-.4 1.6-1.2v-.2c-.2-.6-1.1-1.4-1.8-1.4z"/><g opacity=".22"><defs><path id="c" d="M1143.3 279.6h-62.6v-29.3c0-.8-.7-1.4-1.4-1.4s-1.4.7-1.4 1.4v30.8c0 .2-.1.1 0 .2.1.8.6 1.1 1.3 1.1h64.3c.8 0 1.6-.4 1.6-1.2v-.2c-.2-.6-1.1-1.4-1.8-1.4z"/></defs><clipPath id="d"><use xlink:href="#c" overflow="visible"/></clipPath><path clip-path="url(#d)" fill="#050505" d="M1150.6 280.3h-70c-.6 0-1-.4-1-1v-37.7c0-.6.4-1 1-1h70c.6 0 1 .4 1 1v37.7c0 .5-.4 1-1 1z"/></g><path fill="#ACACAD" d="M1175.9 279.6h-25.2v2.9h25.2c.8 0 1.6-.4 1.6-1.2v-.1c0-.8-.9-1.6-1.6-1.6z"/><g opacity=".22"><defs><path id="e" d="M1175.9 279.6h-25.2v2.9h25.2c.8 0 1.6-.4 1.6-1.2v-.1c0-.8-.9-1.6-1.6-1.6z"/></defs><clipPath id="f"><use xlink:href="#e" overflow="visible"/></clipPath><path clip-path="url(#f)" fill="#050505" d="M1140.6 269.5h42.9v11h-42.9z"/></g><path fill="#EF8354" d="M1151.5 284.7h-9.2c-1.4 0-2.5-1.1-2.5-2.5v-2.3c0-1.4 1.1-2.5 2.5-2.5h9.2c1.4 0 2.5 1.1 2.5 2.5v2.3c-.1 1.4-1.2 2.5-2.5 2.5z"/><g opacity=".22"><defs><path id="g" d="M1151.1 284.7h-8.6c-1.5 0-2.8-1.2-2.8-2.8v-1.7c0-1.5 1.2-2.8 2.8-2.8h8.6c1.5 0 2.8 1.2 2.8 2.8v1.7c0 1.6-1.3 2.8-2.8 2.8z"/></defs><clipPath id="h"><use xlink:href="#g" overflow="visible"/></clipPath><path clip-path="url(#h)" fill="#070505" d="M1146.8 268.9h24.6v20.9h-24.6z"/></g><path fill="#FFED66" d="M1146.6 272.3c-.3 0-.6-.3-.6-.6v-9.3c0-.3.3-.6.6-.6s.6.3.6.6v9.3c0 .4-.3.6-.6.6zM1151.9 273.8c-.3-.2-.3-.6 0-.9l6.4-6.8c.2-.3.6-.3.9 0 .3.2.3.6 0 .9l-6.4 6.8c-.3.2-.7.2-.9 0zM1142.3 273.8c.3-.2.3-.6 0-.9l-6.4-6.8c-.2-.3-.6-.3-.9 0-.3.2-.3.6 0 .9l6.4 6.8c.3.2.7.2.9 0z"/></g><g><path fill="#FF1654" d="M1068.1 267.7h-2.3c-1.2 0-2.2-1-2.2-2.2l-.1-28.3c0-1.2 1-2.2 2.2-2.2h2.3c1.2 0 2.2 1 2.2 2.2l.1 28.3c0 1.2-1.1 2.2-2.2 2.2z"/><path opacity=".22" fill="#020202" d="M1067 235.5l.3-.2.1 32.6s-.3.2-.2.2h-.1c1.8 0 3.2-1.8 3.2-3.6l-.1-25.9c.1-1.9-1.3-3.1-3.2-3.1z"/></g><g><path fill="#5C6D6D" d="M1055 243.1h-5.6c-.8 0-1.4-.6-1.4-1.4v-15.5c0-.8.6-1.4 1.4-1.4h5.6c.8 0 1.4.6 1.4 1.4v15.5c0 .7-.6 1.4-1.4 1.4z"/><path opacity=".22" d="M1055.4 224.8c.2.2.3.6.3.8V241c0 .8-.7 1.5-1.5 1.5h-5.6c-.1 0-.3.1-.5.1.3.3.6.6 1 .6h5.6c.8 0 1.5-1 1.5-1.8v-15.3c.2-.6-.2-1.1-.8-1.3z"/><circle fill="#FF1654" cx="1051.9" cy="236.2" r="1.1"/><g opacity=".22"><defs><circle id="i" cx="1051.9" cy="236.2" r="1.1"/></defs><clipPath id="j"><use xlink:href="#i" overflow="visible"/></clipPath><path clip-path="url(#j)" fill="#070707" d="M1051.9 232.5h3.4v7.4h-3.4z"/></g><circle fill="#FF1654" cx="1051.9" cy="240.1" r="1.1"/><g opacity=".22"><defs><circle id="k" cx="1051.9" cy="240.1" r="1.1"/></defs><clipPath id="l"><use xlink:href="#k" overflow="visible"/></clipPath><path clip-path="url(#l)" fill="#070707" d="M1051.9 236.4h3.4v7.4h-3.4z"/></g><circle fill="#02C39A" cx="1049.7" cy="238.3" r="1.1"/><g opacity=".22"><defs><circle id="m" cx="1049.7" cy="238.3" r="1.1"/></defs><clipPath id="n"><use xlink:href="#m" overflow="visible"/></clipPath><path clip-path="url(#n)" fill="#070707" d="M1049.7 234.6h3.4v7.4h-3.4z"/></g><circle fill="#02C39A" cx="1054" cy="238.3" r="1.1"/><g opacity=".22"><defs><circle id="o" cx="1054" cy="238.3" r="1.1"/></defs><clipPath id="p"><use xlink:href="#o" overflow="visible"/></clipPath><path clip-path="url(#p)" fill="#070707" d="M1054 234.6h3.4v7.4h-3.4z"/></g><path fill="#465454" d="M1053.4 229.4h-3c-.7 0-1.3-.6-1.3-1.2 0-.7.6-1.3 1.3-1.3h3c.7 0 1.3.6 1.3 1.3-.1.6-.7 1.2-1.3 1.2z"/><circle fill="#02C39A" cx="1050.5" cy="228.1" r="1.1"/></g></svg>