<svg style="position: absolute; width: 0; height: 0; overflow: hidden;" version="1.1" xmlns="http://www.w3.org/2000/svg"
     xmlns:xlink="http://www.w3.org/1999/xlink">
  <defs>
    <symbol id="icon-paperplane" viewBox="0 0 32 32">
      <title>paperplane</title>
      <path class="path1"
            d="M31.543 0.16c-0.166-0.107-0.355-0.16-0.543-0.16-0.193 0-0.387 0.055-0.555 0.168l-30 20c-0.309 0.205-0.479 0.566-0.439 0.936 0.038 0.369 0.278 0.688 0.623 0.824l7.824 3.131 3.679 6.438c0.176 0.309 0.503 0.5 0.857 0.504 0.004 0 0.007 0 0.011 0 0.351 0 0.677-0.186 0.857-0.486l2.077-3.463 9.695 3.877c0.119 0.048 0.244 0.071 0.371 0.071 0.17 0 0.338-0.043 0.49-0.129 0.264-0.148 0.445-0.408 0.496-0.707l5-30c0.065-0.393-0.109-0.787-0.443-1.004zM3.136 20.777l23.175-15.451-16.85 18.037c-0.089-0.053-0.168-0.123-0.266-0.162l-6.059-2.424zM10.189 24.066c-0.002-0.004-0.005-0.006-0.007-0.010l18.943-20.275-16.149 25.162-2.787-4.877zM25.217 29.609l-8.541-3.416c-0.203-0.080-0.414-0.107-0.623-0.119l13.152-20.388-3.988 23.923z"></path>
    </symbol>
    <symbol id="icon-space-invaders" viewBox="0 0 33 32">
      <title>space-invaders</title>
      <path class="path1"
            d="M29.963 24.982v-5.947h-2.91v5.969h-3.037v2.953h-7.048v-2.975h7.048v-2.972h-14.991v2.973l6.030 0.021v2.973h-6.051v-2.951h-3.036v-6.010h-2.911v5.947h-3.057v-9.004h2.995v-2.891h2.973v-3.057h3.057v-2.994h2.994v3.003l8.983 0.024v-3.027h2.994v3.036h3.057v2.974h2.953v2.973h3.014v8.982h-3.057zM12.019 13.005h-2.994v2.995h2.994v-2.995zM23.996 13.005h-2.994v2.995h2.994v-2.995zM5.968 4.023h3.057v2.994h-3.057v-2.994zM27.053 4.023v2.994h-3.057v-2.994h3.057z"></path>
    </symbol>
    <symbol id="icon-bin" viewBox="0 0 32 32">
      <title>bin</title>
      <path class="path1"
            d="M4 10v20c0 1.1 0.9 2 2 2h18c1.1 0 2-0.9 2-2v-20h-22zM10 28h-2v-14h2v14zM14 28h-2v-14h2v14zM18 28h-2v-14h2v14zM22 28h-2v-14h2v14z"></path>
      <path class="path2"
            d="M26.5 4h-6.5v-2.5c0-0.825-0.675-1.5-1.5-1.5h-7c-0.825 0-1.5 0.675-1.5 1.5v2.5h-6.5c-0.825 0-1.5 0.675-1.5 1.5v2.5h26v-2.5c0-0.825-0.675-1.5-1.5-1.5zM18 4h-6v-1.975h6v1.975z"></path>
    </symbol>
    <symbol id="icon-pencil" viewBox="0 0 32 32">
      <title>pencil</title>
      <path class="path1"
            d="M27 0c2.761 0 5 2.239 5 5 0 1.126-0.372 2.164-1 3l-2 2-7-7 2-2c0.836-0.628 1.874-1 3-1zM2 23l-2 9 9-2 18.5-18.5-7-7-18.5 18.5zM22.362 11.362l-14 14-1.724-1.724 14-14 1.724 1.724z"></path>
    </symbol>
    <!--<symbol id="icon-cake" viewBox="0 0 32 32">
      <title>cake</title>
      <path class="path1"
            d="M25.5 9c-0.295 0-0.58 0.037-0.857 0.097-0.123-1.821-1.624-3.264-3.476-3.264-0.415 0-0.808 0.085-1.177 0.218-1.15-1.828-3.172-3.051-5.49-3.051-3.522 0-6.373 2.807-6.48 6.303-0.469-0.193-0.981-0.303-1.52-0.303-2.209 0-4 1.791-4 4 0 2.152 1.703 3.894 3.833 3.982l1.604-1.604 1.622 1.622h0.758l1.621-1.622 1.621 1.622h0.758l1.621-1.622 1.621 1.622h0.758l1.621-1.622 1.621 1.622h0.758l1.621-1.622 1.616 1.616c2.183-0.029 3.946-1.803 3.946-3.994 0-2.209-1.791-4-4-4zM24 16.566l-1.434 1.434h-1.258l-1.371-1.371-1.371 1.371h-1.258l-1.371-1.371-1.371 1.371h-1.258l-1.371-1.371-1.371 1.371h-1.257l-1.371-1.371-1.372 1.371h-0.066l2.65 11h13.625l2.725-11h-0.066l-1.434-1.434zM11.5 28l-2.083-9h1l2.083 9h-1zM13.5 28l-1.062-9h1l1.062 9h-1zM16.5 28h-1v-9h1v9zM17.5 28l1.062-9h1l-1.062 9h-1zM20.5 28h-1l2.062-9h1l-2.062 9z"></path>
    </symbol>-->
    <symbol id="icon-favorite" viewBox="0 0 24 24">
      <title>favorite</title>
      <path class="path1"
            d="M12 21.328l-1.453-1.313c-5.156-4.688-8.531-7.734-8.531-11.531 0-3.094 2.391-5.484 5.484-5.484 1.734 0 3.422 0.844 4.5 2.109 1.078-1.266 2.766-2.109 4.5-2.109 3.094 0 5.484 2.391 5.484 5.484 0 3.797-3.375 6.891-8.531 11.578z"></path>
    </symbol>
    <symbol id="icon-pacman" viewBox="0 0 32 32">
      <title>pacman</title>
      <path class="path1"
            d="M30.148 5.588c-2.934-3.42-7.288-5.588-12.148-5.588-8.837 0-16 7.163-16 16s7.163 16 16 16c4.86 0 9.213-2.167 12.148-5.588l-10.148-10.412 10.148-10.412zM22 3.769c1.232 0 2.231 0.999 2.231 2.231s-0.999 2.231-2.231 2.231-2.231-0.999-2.231-2.231c0-1.232 0.999-2.231 2.231-2.231z"></path>
    </symbol>
    <symbol id="icon-heart" viewBox="0 0 32 32">
      <title>heart</title>
      <path class="path1"
            d="M23.6 2c-3.363 0-6.258 2.736-7.599 5.594-1.342-2.858-4.237-5.594-7.601-5.594-4.637 0-8.4 3.764-8.4 8.401 0 9.433 9.516 11.906 16.001 21.232 6.13-9.268 15.999-12.1 15.999-21.232 0-4.637-3.763-8.401-8.4-8.401z"></path>
    </symbol>
    <symbol id="icon-heart-o" viewBox="0 0 32 32">
      <title>heart-o</title>
      <path class="path1"
            d="M29.714 10.643q0-1.446-0.384-2.554t-0.982-1.759-1.455-1.063-1.679-0.554-1.75-0.143-2 0.455-1.973 1.143-1.545 1.286-1.071 1.098q-0.321 0.393-0.875 0.393t-0.875-0.393q-0.429-0.5-1.071-1.098t-1.545-1.286-1.973-1.143-2-0.455-1.75 0.143-1.679 0.554-1.455 1.063-0.982 1.759-0.384 2.554q0 3 3.339 6.339l10.375 10 10.357-9.982q3.357-3.357 3.357-6.357zM32 10.643q0 3.946-4.089 8.036l-11.125 10.714q-0.321 0.321-0.786 0.321t-0.786-0.321l-11.143-10.75q-0.179-0.143-0.491-0.464t-0.991-1.17-1.214-1.741-0.955-2.161-0.42-2.464q0-3.929 2.268-6.143t6.268-2.214q1.107 0 2.259 0.384t2.143 1.036 1.705 1.223 1.357 1.214q0.643-0.643 1.357-1.214t1.705-1.223 2.143-1.036 2.259-0.384q4 0 6.268 2.214t2.268 6.143z"></path>
    </symbol>
    <symbol id="icon-facebook2" viewBox="0 0 32 32">
      <title>facebook2</title>
      <path class="path1"
            d="M29 0h-26c-1.65 0-3 1.35-3 3v26c0 1.65 1.35 3 3 3h13v-14h-4v-4h4v-2c0-3.306 2.694-6 6-6h4v4h-4c-1.1 0-2 0.9-2 2v2h6l-1 4h-5v14h9c1.65 0 3-1.35 3-3v-26c0-1.65-1.35-3-3-3z"></path>
    </symbol>
    <symbol id="icon-github" viewBox="0 0 32 32">
      <title>github</title>
      <path class="path1"
            d="M16 0.395c-8.836 0-16 7.163-16 16 0 7.069 4.585 13.067 10.942 15.182 0.8 0.148 1.094-0.347 1.094-0.77 0-0.381-0.015-1.642-0.022-2.979-4.452 0.968-5.391-1.888-5.391-1.888-0.728-1.849-1.776-2.341-1.776-2.341-1.452-0.993 0.11-0.973 0.11-0.973 1.606 0.113 2.452 1.649 2.452 1.649 1.427 2.446 3.743 1.739 4.656 1.33 0.143-1.034 0.558-1.74 1.016-2.14-3.554-0.404-7.29-1.777-7.29-7.907 0-1.747 0.625-3.174 1.649-4.295-0.166-0.403-0.714-2.030 0.155-4.234 0 0 1.344-0.43 4.401 1.64 1.276-0.355 2.645-0.532 4.005-0.539 1.359 0.006 2.729 0.184 4.008 0.539 3.054-2.070 4.395-1.64 4.395-1.64 0.871 2.204 0.323 3.831 0.157 4.234 1.026 1.12 1.647 2.548 1.647 4.295 0 6.145-3.743 7.498-7.306 7.895 0.574 0.497 1.085 1.47 1.085 2.963 0 2.141-0.019 3.864-0.019 4.391 0 0.426 0.288 0.925 1.099 0.768 6.354-2.118 10.933-8.113 10.933-15.18 0-8.837-7.164-16-16-16z"></path>
    </symbol>
    <symbol id="icon-rocket22" viewBox="0 0 30 32">
      <title>rocket22</title>
      <path class="path1"
            d="M25.714 8q0-0.714-0.5-1.214t-1.214-0.5-1.214 0.5-0.5 1.214 0.5 1.214 1.214 0.5 1.214-0.5 0.5-1.214zM29.714 2.857q0 4.446-1.348 7.687t-4.527 6.438q-1.446 1.429-3.482 3.143l-0.357 6.768q-0.036 0.286-0.286 0.464l-6.857 4q-0.125 0.071-0.286 0.071-0.214 0-0.411-0.161l-1.143-1.143q-0.232-0.25-0.143-0.571l1.518-4.929-5.018-5.018-4.929 1.518q-0.054 0.018-0.161 0.018-0.25 0-0.411-0.161l-1.143-1.143q-0.304-0.339-0.089-0.696l4-6.857q0.179-0.25 0.464-0.286l6.768-0.357q1.714-2.036 3.143-3.482 3.357-3.339 6.393-4.607t7.696-1.268q0.25 0 0.429 0.17t0.179 0.402z"></path>
    </symbol>
    <symbol id="icon-rocket-color" viewBox="0 0 280.291 280.291">
      <title>rocket</title>
      <g>
        <path style="fill:#EFC75E;" d="M84.373,195.442c13.083,13.03,17.02,34.461,3.947,47.5c-13.083,13.03-52.514,27.548-65.596,14.518
		c-13.074-13.03,1.505-52.321,14.579-65.351C50.384,179.078,71.299,182.403,84.373,195.442z"/>
        <path style="fill:#E2574C;" d="M205.178,166.468c19.698,40.84-28.37,135.901-50.597,109.001
		c-9.013-10.904-8.418-28.3-31.949-50.702c-0.035,0.14,8.567,1.523,18.639-7.596C164.513,199.266,205.178,166.617,205.178,166.468z"
        />
        <path style="fill:#E2574C;" d="M122.404,75.004C78.256,54.999-23.998,102.753,5.143,125.216
		c11.814,9.11,30.558,8.611,54.842,32.369c-0.149,0.035-1.68-8.611,8.103-18.683C87.243,115.643,122.238,75.004,122.404,75.004z"/>
        <path style="fill:#CF5349;" d="M102.96,70.471l-1.908-0.096c-9.687,11.831-33.358,40.998-47.788,59.453
		c-5.916,6.423-7.517,12.26-7.858,15.708c2.827,1.943,5.741,4.183,8.751,6.756c0.735-3.483,2.669-8.34,7.508-13.599
		c18.421-23.575,52.05-64.791,52.208-64.783C110.573,72.335,106.862,71.259,102.96,70.471z"/>
        <path style="fill:#CF5349;" d="M205.45,167.115c-5.758,4.848-42.249,34.767-63.934,51.84c-7.167,6.633-13.529,7.876-16.705,7.998
		c3.115,3.133,5.811,6.169,8.103,9.101c2.853,0.044,9.722-0.858,17.475-8.025c18.149-14.299,46.572-37.497,58.762-47.57
		C208.495,175.63,207.287,171.123,205.45,167.115z"/>
        <path style="fill:#D7B354;" d="M53.412,184.232c1.82,8.156,7.412,17.878,16.119,26.568c8.663,8.646,18.351,14.211,26.498,16.067
		c1.383-10.956-3.15-22.953-11.656-31.424C75.911,187.006,64.185,182.736,53.412,184.232z"/>
        <path style="fill:#EBEBEB;" d="M278.528,1.532c6.581,6.222-3.107,98.596-66.244,161.313c-39.09,38.836-65.019,53.87-71.223,59.252
		c-17.16,7.78-28.545,11.962-62.551-21.833c-33.927-33.708-27.399-43.054-19.873-59.2c5.583-6.266,21.046-32.299,60.145-71.144
		C181.892,7.211,271.641-4.576,278.528,1.532z"/>
        <path style="fill:#324D5B;" d="M199.604,80.316c13.608,13.634,13.608,35.738,0,49.381c-13.616,13.634-35.677,13.634-49.294,0
		c-13.608-13.643-13.608-35.747,0-49.381C163.927,66.673,185.988,66.673,199.604,80.316z"/>
        <path style="fill:#CCD0D2;" d="M187.397,92.689c6.861,6.817,6.861,17.869,0,24.686c-6.852,6.817-17.983,6.817-24.852,0
		c-6.852-6.817-6.852-17.869,0-24.686C169.422,85.872,180.545,85.872,187.397,92.689z"/>
      </g>
    </symbol>
    <symbol id="icon-unicorn" viewBox="0 0 448.546 448.546">
      <title>Unicorn</title>
      <g>
        <path
          d="M440.243,167.706c0-11.868-4.621-23.025-13.013-31.416c-8.391-8.392-19.552-13.014-31.427-13.014   c-19.69,0-36.765,13.135-42.448,31.277c-5.418-1.311-10.982-1.988-16.624-1.988c-16.155,0-32.298,5.542-45.455,15.607   c-6.048,4.628-12.589,8.308-19.475,11.001c-0.379-56.859-22.995-110.52-59.285-139.536c-2.278-4.122-5.096-7.947-8.453-11.322   l-6.029-6.063l-4.615,5.245c-14.915-7.159-30.575-9.539-45.658-6.858c-10.969,1.952-20.159,9.247-24.584,19.514   c-3.117,7.234-3.543,15.173-1.412,22.511c-1.653,0.767-3.252,1.625-4.796,2.569L8.303,0L88.68,107.432l-22.606,49.411   c-4.969,10.856-3.98,23.269,2.643,33.202c6.358,9.534,17.001,15.227,28.469,15.227c6.129,0,12.163-1.661,17.449-4.805   l17.271-10.269c-8.082,18.234-16.945,40.986-16.945,53.067c0,22.728,7.94,44.652,22.357,61.737   c5.036,5.967,10.79,11.242,17.086,15.753v127.79h33h15h42V338.559c23.455-1.98,55.128-15.9,83.098-30.766   c-0.066,3.365-0.098,6.385-0.098,9.213v131.54h32h16h41V316.088l23.84,43.529V167.706z M241.637,107.103   c9.688,23.505,14.535,49.807,14.142,76.437c-4.132,0.664-8.339,1.006-12.597,1.006h-9.405   c-2.255-16.181-8.859-56.497-22.198-87.708c5.073-8.275,7.696-17.871,7.973-27.541C228.232,80.062,235.794,92.925,241.637,107.103z    M137.871,46.486c2.323-5.393,6.95-9.072,12.69-10.094c10.537-1.87,21.194-0.621,31.788,3.684L171.452,52.46   c-1.186,1.096-2.835,1.697-4.758,1.697c-6.766,0-18.485,1.586-29.624,3.927C135.987,54.31,136.238,50.275,137.871,46.486z    M69.922,55.652l32.549,19.54l-6.209,15.667L69.922,55.652z M106.457,186.715c-2.813,1.672-6.019,2.557-9.271,2.557   c-6.107,0-11.773-3.029-15.156-8.104c-3.472-5.206-4.011-11.976-1.406-17.668l32.285-70.566c4.13-9.025,11.996-15.538,21.58-17.868   c11.51-2.798,25.355-4.908,32.305-4.908c6.164,0,11.88-2.308,16.092-6.496l15.13-17.166c7.906,13.432,7.512,32.182-1.935,44.711   l-2.878,3.817l1.998,4.343c0.569,1.237,1.126,2.496,1.672,3.775c4.245,9.944,4.454,21.294-0.004,31.145   c-3.774,8.34-10.347,14.981-19.683,19.849c-13.224,6.896-27.214,7.729-27.354,7.736l0,0c-1.263,0.129-2.484,0.532-3.575,1.181   L106.457,186.715z M187.403,335.923v71.623h-17v-77.53C175.845,332.496,181.532,334.486,187.403,335.923z M170.403,432.546v-9h17v9   H170.403z M203.403,432.546v-9h25v9H203.403z M238.937,322.8c-0.721,0-1.43-0.019-2.106-0.055l-8.428-0.452v85.253h-25v-84.874   l-6.649-1.138c-18.506-3.169-35.271-12.704-47.208-26.85c-11.985-14.202-18.586-32.464-18.586-51.419   c0-10.817,12.437-41.03,24.581-65.919c6.205-0.849,17.416-3.073,28.536-8.763c9.202-4.71,19.319-12.309,25.808-24.357   c6.24,26.061,8.868,48.854,8.908,49.212l0.801,7.106h23.59c21.01,0,41.003-6.801,57.815-19.665   c10.382-7.942,23.072-12.315,35.733-12.315c6.323,0,12.518,1.071,18.414,3.185c1.911,0.685,3.44,1.347,4.545,1.969   c6.377,3.587,12.215,8.01,17.349,13.145c15.066,15.066,23.364,35.053,23.364,56.278v164.404h-25v-83.374l-4.846-2.078   c-10.421-4.471-17.154-14.845-17.154-26.429v-20.904l-12.021,6.988C295.849,308.221,259.467,322.8,238.937,322.8z M359.403,334.354   v73.191h-16v-89.347C347.211,324.822,352.678,330.427,359.403,334.354z M343.403,432.546v-9h16v9H343.403z M375.403,432.546v-9h25   v9H375.403z M424.243,297.094l-7.84-14.315v-39.637c0-25.499-9.962-49.504-28.05-67.593c-5.947-5.946-12.68-11.084-20.01-15.302   c3.324-12.102,14.51-20.971,27.46-20.971c7.601,0,14.744,2.957,20.112,8.327c5.37,5.369,8.327,12.509,8.327,20.103V297.094z"/>
        <path
          d="M160.997,128.102c7.36-10.74,4.61-25.465-6.13-32.825c-3.948-2.705-8.56-4.136-13.333-4.136   c-7.8,0-15.087,3.838-19.492,10.267c-7.359,10.74-4.609,25.466,6.131,32.824c3.948,2.706,8.559,4.137,13.333,4.137h0.001   C149.306,138.368,156.592,134.53,160.997,128.102z M147.798,119.058c-1.421,2.073-3.772,3.311-6.292,3.311   c-1.532,0-3.016-0.462-4.29-1.335c-3.462-2.372-4.349-7.12-1.977-10.582c1.421-2.073,3.773-3.311,6.294-3.311   c1.532,0,3.016,0.462,4.289,1.334c1.677,1.149,2.807,2.884,3.18,4.882C149.375,115.355,148.948,117.38,147.798,119.058z"/>
      </g>
    </symbol>
  </defs>
</svg>
