<svg xmlns="http://www.w3.org/2000/svg" xmlns:xlink="http://www.w3.org/1999/xlink" width="111" height="28" viewBox="0 0 111 28">
    <defs>
        <path id="a" d="M11.077.546H.464v19.336h10.613V.546z"/>
        <path id="c" d="M13.221 19.854V.308H.308v19.546z"/>
    </defs>
    <g fill="none" fill-rule="evenodd">
        <path fill="#FFF" d="M9.128 13.831c0-.801-.281-1.569-.845-2.14a2.756 2.756 0 0 0-2.017-.873c-.769 0-1.486.307-2.047.872a3.12 3.12 0 0 0-.845 2.141c0 .796.305 1.544.845 2.135.561.57 1.278.877 2.047.877.764 0 1.481-.307 2.017-.877.564-.591.845-1.34.845-2.135zm3.222-5.535v11.096H9.637V18.31a5.795 5.795 0 0 1-3.78 1.39A5.85 5.85 0 0 1 0 13.832c0-3.27 2.606-5.87 5.855-5.87 1.428 0 2.758.514 3.78 1.386l.255-1.05h2.459z"/>
        <g transform="translate(13.354 -.491)">
            <mask id="b" fill="#fff">
                <use xlink:href="#a"/>
            </mask>
            <path fill="#FFF" d="M8.75 4.25c-.18-.23-.612-.616-1.203-.616-1.79 0-1.92 2.345-1.92 3.065v2.087h3.3V11.8h-3.3v8.082H2.565V11.8h-2.1V8.786h2.1V6.7c0-1.804.455-3.321 1.354-4.43A4.612 4.612 0 0 1 7.547.545c1.33 0 2.585.593 3.53 1.676l-2.326 2.03z" mask="url(#b)"/>
        </g>
        <path fill="#FFF" d="M31.654 8.296v3.011H29.1v8.085H25.85v-8.085h-2.3V8.296h2.3V4.173h3.25v4.123zM41.63 12.904a3.03 3.03 0 0 0-.692-1.26 2.61 2.61 0 0 0-1.943-.88c-.743 0-1.434.308-1.968.88a3.743 3.743 0 0 0-.692 1.26h5.294zm1.66 4.735a5.76 5.76 0 0 1-4.425 2.062c-3.221 0-5.855-2.653-5.855-5.897 0-3.271 2.634-5.896 5.855-5.896 3.225 0 5.855 2.625 5.855 5.896 0 .361-.023.697-.1 1.056h-8.233c.151.415.358.771.64 1.079.534.595 1.225.905 1.968.905.692 0 1.381-.31 1.89-.828l2.405 1.623zM49.328 9.555c.815-1.08 2.275-1.543 3.73-1.543.643 0 1.284.101 1.87.31l-1.252 2.856c-1.87-.827-3.761.308-4.094 2.088v6.126h-3.196V8.296h2.478l.464 1.26zM76.459 13.831c0-.801-.282-1.569-.846-2.14a2.756 2.756 0 0 0-2.017-.873c-.768 0-1.486.307-2.047.872a3.12 3.12 0 0 0-.845 2.141c0 .796.305 1.544.845 2.135.561.57 1.279.877 2.047.877.764 0 1.481-.307 2.017-.877.564-.591.846-1.34.846-2.135zm3.22-5.535v11.096h-2.71V18.31a5.797 5.797 0 0 1-3.783 1.39 5.85 5.85 0 0 1-5.855-5.868c0-3.27 2.606-5.87 5.855-5.87 1.43 0 2.76.514 3.783 1.386l.254-1.05h2.457zM90.886 11.69a2.709 2.709 0 0 0-2.02-.898c-.77 0-1.51.31-2.046.898a3.073 3.073 0 0 0-.844 2.113c0 .824.308 1.572.844 2.137.535.57 1.276.88 2.047.88.762 0 1.479-.31 2.019-.88a3.076 3.076 0 0 0 .843-2.137c0-.8-.307-1.541-.843-2.113zm-5.704-2.106a5.835 5.835 0 0 1 4.088-1.677c3.228 0 5.836 2.655 5.836 5.896 0 3.272-2.608 5.899-5.836 5.899-1.584 0-3.04-.62-4.088-1.677v9.428H82.19V8.296h2.764l.228 1.288z"/>
        <g transform="translate(97.151 7.6)">
            <mask id="d" fill="#fff">
                <use xlink:href="#c"/>
            </mask>
            <path fill="#FFF" d="M9.002 4.091a2.702 2.702 0 0 0-2.02-.898c-.77 0-1.51.309-2.046.898a3.073 3.073 0 0 0-.844 2.113c0 .823.308 1.571.844 2.137.535.57 1.276.879 2.047.879.764 0 1.481-.31 2.02-.88a3.076 3.076 0 0 0 .842-2.136c0-.8-.307-1.541-.843-2.113zM3.298 1.984A5.84 5.84 0 0 1 7.388.308c3.226 0 5.834 2.654 5.834 5.896 0 3.272-2.608 5.899-5.834 5.899-1.584 0-3.042-.62-4.09-1.677v9.428H.308V.697H3.07l.228 1.287z" mask="url(#d)"/>
        </g>
        <path fill="#6CE6D6" d="M63.776 6.195l.971-.908 10.697.037.062-3.044H63.558v.007l-.002-.005-5.817 5.424 2.216 2.41c1.351 1.59 1.302 1.485 1.302 1.485 1.65 1.95.587 3.762-.299 4.538-1.035.87-2.8 1.304-4.342-.484-.441-.512-.631-1.12-.719-1.741h-3.059c.111 1.337.608 2.648 1.526 3.712 1.557 1.808 3.262 2.24 4.438 2.292 1.469.051 2.931-.476 4.114-1.51 1.18-1.036 1.955-2.429 2.147-3.933.154-1.215.02-3.023-1.516-4.843L61.95 7.858l1.137-1.064.69-.6z"/>
    </g>
</svg>
