<svg xmlns="http://www.w3.org/2000/svg" xmlns:xlink="http://www.w3.org/1999/xlink" width="88.536" height="74.001" viewBox="40.035 351.579 88.536 74.001"><path fill="#8EE3CE" d="M116.79 382.893h-35.7c-1.53 0-2.805-1.275-2.805-2.805 0-1.53 1.275-2.805 2.805-2.805h35.7c1.53 0 2.805 1.275 2.805 2.805 0 1.53-1.275 2.805-2.805 2.805zM114.19 358.31h-3.724c-1.53 0-2.805-1.274-2.805-2.804 0-1.53 1.276-2.805 2.806-2.805h3.723c1.53 0 2.804 1.276 2.804 2.806 0 1.58-1.275 2.805-2.805 2.805zM101.388 391.46h-5.763c-1.53 0-2.805-1.274-2.805-2.804 0-1.53 1.275-2.805 2.805-2.805h5.763c1.53 0 2.805 1.276 2.805 2.806s-1.275 2.805-2.805 2.805zM125.766 374.784h-30.14c-1.53 0-2.806-1.275-2.806-2.805 0-1.53 1.275-2.806 2.805-2.806h30.14c1.53 0 2.806 1.275 2.806 2.805 0 1.53-1.223 2.804-2.804 2.804zM110.415 366.47h-14.79c-1.53 0-2.805-1.274-2.805-2.804 0-1.53 1.275-2.805 2.805-2.805h14.79c1.53 0 2.805 1.276 2.805 2.806 0 1.58-1.275 2.805-2.805 2.805z"/><path fill="#8EE3CE" d="M112.047 376.11c0-.765.765-1.53 1.683-1.53h-12.24v.204c.612.102 1.122.663 1.122 1.326s-.46 1.224-1.122 1.326v.204h12.19c-.92 0-1.633-.765-1.633-1.53zM104.09 367.848c0-.612.46-1.122.97-1.326v-.102h-5.61v3.06h5.61v-.306c-.51-.204-.97-.714-.97-1.326zM80.376 355.71h-16.88c-1.53 0-2.806 1.326-2.806 2.907 0 1.275.867 2.448 2.04 2.805v.102c.612.102 1.122.663 1.122 1.326s-.46 1.224-1.122 1.326v.204h-9.945c-1.53 0-2.805 1.275-2.805 2.805 0 1.53 1.275 2.805 2.805 2.805h23.41c1.53 0 2.804-1.275 2.804-2.805 0-1.53-1.276-2.805-2.806-2.805h-1.99c-.56-.51-.968-1.02-.968-1.53s.357-1.02.918-1.53h6.222c1.53 0 2.805-1.275 2.805-2.805 0-1.53-1.223-2.805-2.804-2.805zm-2.193 4.08c-.612 0-1.07-.51-1.07-1.07 0-.613.51-1.072 1.07-1.072.612 0 1.07.51 1.07 1.07.052.562-.458 1.072-1.07 1.072z"/><circle fill="#B2DBBF" cx="78.183" cy="358.719" r="1.071"/><circle fill="#B2DBBF" cx="112.353" cy="371.979" r="1.071"/><circle fill="#B2DBBF" cx="102.102" cy="380.088" r=".51"/><g><defs><circle id="a" cx="95.37" cy="360.861" r="9.282"/></defs><clipPath id="b"><use xlink:href="#a" overflow="visible"/></clipPath><g clip-path="url(#b)"><circle fill="#A995A6" cx="95.37" cy="360.861" r="9.282"/><path fill="#32429B" d="M81.702 350.253h29.12v5.916h-29.12zM83.232 359.586h26.316v4.59H83.232zM104.958 369.123h-8.823c-.408 0-.765-.357-.765-.765 0-.408.357-.765.765-.765h8.823c.408 0 .765.357.765.765-.05.46-.357.765-.765.765z"/><path fill="#A995A6" d="M94.81 362.748H83.792c-.306 0-.56-.255-.56-.56 0-.307.254-.562.56-.562H94.81c.305 0 .56.255.56.56 0 .307-.255.562-.56.562z"/><path fill="#02C39A" d="M109.395 355.353H96.44c-.61 0-1.07-.46-1.07-1.07 0-.613.46-1.072 1.07-1.072h12.955c.612 0 1.07.46 1.07 1.072 0 .56-.458 1.07-1.07 1.07z"/><circle fill="#A995A6" cx="92.871" cy="357.036" r="2.346"/><circle fill="#32429B" cx="92.871" cy="357.036" r="1.479"/><circle fill="#A995A6" cx="99.96" cy="365.349" r="2.04"/><circle fill="#02C39A" cx="99.909" cy="365.298" r="1.479"/><path fill="#A995A6" d="M90.83 358.77c-.05.51.817 1.224 1.48 1.224s1.53-.51 1.53-1.173l-3.01-.05z"/><circle fill="#02C39A" cx="92.208" cy="358.515" r=".816"/><path fill="#02C39A" d="M92.87 367.032h-10.3c-.46 0-.868-.408-.868-.867 0-.46.408-.867.867-.867h10.3c.46 0 .868.408.868.867 0 .46-.357.867-.867.867z"/><circle fill="#02C39A" cx="103.224" cy="362.697" r=".561"/></g><g><defs><circle id="c" cx="95.37" cy="360.861" r="9.282"/></defs><clipPath id="d"><use xlink:href="#c" overflow="visible"/></clipPath><g clip-path="url(#d)"><defs><path id="e" d="M95.37 346.02h19.38v31.57H95.37z"/></defs><clipPath id="f"><use xlink:href="#e" overflow="visible"/></clipPath><g opacity=".22" clip-path="url(#f)"><circle fill="#050505" cx="95.37" cy="360.861" r="9.282"/><defs><circle id="g" cx="95.37" cy="360.861" r="9.282"/></defs><clipPath id="h"><use xlink:href="#g" overflow="visible"/></clipPath><g clip-path="url(#h)" fill="#050505"><circle cx="95.37" cy="360.861" r="9.282"/><path d="M81.702 350.253h29.12v5.916h-29.12zM83.232 359.586h26.316v4.59H83.232zM104.958 369.123h-8.823c-.408 0-.765-.357-.765-.765 0-.408.357-.765.765-.765h8.823c.408 0 .765.357.765.765-.05.46-.357.765-.765.765z"/><path d="M94.81 362.748H83.792c-.306 0-.56-.255-.56-.56 0-.307.254-.562.56-.562H94.81c.305 0 .56.255.56.56 0 .307-.255.562-.56.562zM109.395 355.353H96.44c-.61 0-1.07-.46-1.07-1.07 0-.613.46-1.072 1.07-1.072h12.955c.612 0 1.07.46 1.07 1.072 0 .56-.458 1.07-1.07 1.07z"/><circle cx="92.871" cy="357.036" r="2.346"/><circle cx="92.871" cy="357.036" r="1.479"/><path d="M90.32 354.945h-6.425c-.408 0-.714-.306-.714-.714 0-.407.307-.713.715-.713h6.426c.41 0 .715.306.715.714 0 .41-.306.715-.714.715z"/><circle cx="99.96" cy="365.349" r="2.04"/><circle cx="99.909" cy="365.298" r="1.479"/><path d="M90.83 358.77c-.05.51.817 1.224 1.48 1.224s1.53-.51 1.53-1.173l-3.01-.05z"/><circle cx="92.208" cy="358.515" r=".816"/><path d="M92.87 367.032h-10.3c-.46 0-.868-.408-.868-.867 0-.46.408-.867.867-.867h10.3c.46 0 .868.408.868.867 0 .46-.357.867-.867.867zM108.273 361.575h-7.038c-.408 0-.714-.306-.714-.714 0-.407.307-.713.715-.713h7.038c.408 0 .714.306.714.714 0 .41-.306.715-.714.715z"/><circle cx="99.042" cy="360.912" r=".714"/><circle cx="103.224" cy="362.697" r=".561"/></g></g></g><circle clip-path="url(#d)" fill="#02C39A" cx="62.322" cy="376.11" r="2.142"/><circle clip-path="url(#d)" fill="#02C39A" cx="122.91" cy="364.074" r="1.683"/><circle clip-path="url(#d)" fill="#02C39A" cx="95.37" cy="397.224" r="2.193"/><circle clip-path="url(#d)" fill="#FF1654" cx="80.274" cy="349.284" r="1.734"/><circle clip-path="url(#d)" fill="#A995A6" cx="107.967" cy="413.187" r="3.927"/><circle clip-path="url(#d)" fill="#FF1654" cx="108.018" cy="413.136" r="2.754"/><circle clip-path="url(#d)" fill="#A995A6" cx="117.504" cy="391.614" r="2.244"/><circle clip-path="url(#d)" fill="#A995A6" cx="105.978" cy="345.918" r="1.428"/></g><g><path fill="#161F45" d="M41.157 414.31v-.052.05zM87.618 414.207c0 .05 0 .05 0 0v.05-.05z"/><path fill="#8EE3CE" d="M89.25 403.14H47.685c-1.632 0-2.958 1.173-2.958 2.806 0 1.632 1.326 2.805 2.958 2.805h2.142c.714 0 1.632.562 1.632 1.327 0 .56-.664.714-1.225 1.224h-6.12c-1.632 0-2.907 1.226-2.958 2.807 0 1.632 1.326 2.805 2.958 2.805h18.82c.56.51.815.97.815 1.58 0 .51-.153.97-.612 1.48h-2.805c-1.632 0-2.958 1.173-2.958 2.806 0 1.632 1.326 2.805 2.958 2.805H79.51c1.63 0 2.957-1.173 2.957-2.805 0-1.633-1.326-2.806-2.958-2.806h-2.04c-.358-.51-.41-.97-.41-1.48 0-.56.103-1.07.613-1.58h7.09c1.63 0 2.906-1.225 2.957-2.805 0-1.633-1.326-2.806-2.958-2.806H83.08c-.46-.51-.868-.662-.868-1.223 0-.714.56-1.326 1.326-1.326h5.712c1.632 0 2.958-1.172 2.958-2.804 0-1.633-1.326-2.806-2.958-2.806zM74.154 400.08c1.632 0 2.958-1.428 2.958-3.06 0-1.632-1.326-3.06-2.958-3.06h-1.02c-.714 0-1.224-.205-1.224-.92 0-.51.255-1.12.663-1.63h4.794c1.632 0 2.958-1.174 2.958-2.806S79 385.8 77.367 385.8H49.623c-1.632 0-2.958 1.172-2.958 2.804s1.326 2.805 2.958 2.805h4.131c.41.51.817 1.07.817 1.63 0 .51-.306.92-.714.92H42.993c-1.632 0-2.958 1.427-2.958 3.06 0 1.632 1.326 3.06 2.958 3.06h31.16zM78.438 397.02c0 1.633 1.326 3.06 2.958 3.06h2.958c1.632 0 2.958-1.427 2.958-3.06 0-1.63-1.326-3.06-2.958-3.06h-2.958c-1.683 0-2.958 1.428-2.958 3.06z"/><path fill="#8EE3CE" d="M51.816 419.97h-3.978c-1.632 0-2.958 1.173-2.958 2.806 0 1.632 1.326 2.805 2.958 2.805h3.978c1.632 0 2.958-1.172 2.958-2.804 0-1.633-1.326-2.806-2.958-2.806z"/><path fill="#161F45" d="M45.85 408.75H46h-.153z"/><g><defs><circle id="i" cx="65.229" cy="405.843" r="13.005"/></defs><clipPath id="j"><use xlink:href="#i" overflow="visible"/></clipPath><g clip-path="url(#j)"><circle fill="#114B5F" cx="65.229" cy="405.843" r="13.005"/><path fill="#02C39A" d="M82.212 395.235c-1.58-.867-3.264-1.122-4.947-.918-3.723-.612-7.497-1.173-11.27-1.683-2.347-.306-5.05-1.02-7.396-.46-1.48.358-2.347 1.684-2.296 3.06-2.193-.815-4.692-.866-6.885-.152-1.48.51-.868 2.855.662 2.346 2.652-.918 5.61-.356 7.7 1.53 1.02.918 1.684 2.193 2.857 3.01 1.223.815 2.55 1.224 3.977 1.274 3.06.152 5.202-2.143 7.395-3.927 1.428-1.174 3.213-2.244 5.1-2.55 1.377.254 2.703.458 4.08.713 1.377.256 2.295-1.478 1.02-2.243z"/><path fill="#02C39A" d="M79.764 405.996c-.51-.103-1.02-.204-1.53-.255.05-.102.05-.203.05-.306.103-2.447-2.498-3.672-4.59-3.16-1.274.305-2.294 1.273-3.16 2.19-.817.817-1.582 1.633-2.347 2.5-1.377.714-2.754 1.173-4.488 1.122-.613 0-1.174-.102-1.786-.204-1.99-.56-3.927-1.48-5.712-2.346-1.275-1.02-2.856-1.02-4.437-1.02-1.887 0-3.723.662-4.692 2.346-.663 1.224.867 2.346 1.785 1.632.204.102.46.102.714.05.357.205.765.256 1.224 0 1.887-1.223 4.03-.61 5.967.104.97.356 1.887.714 2.856 1.07 2.396.867 4.895 1.377 7.445 1.02.918-.152 1.836-.407 2.703-.713.56-.153 1.122-.357 1.683-.562s1.123-.356 1.684-.51c2.142-.51 4.437 0 6.63-.46 1.173-.406 1.122-2.242 0-2.497zM81.04 414.462c-2.04.51-4.132 1.02-6.223 1.428-.306.052-.612.052-.918.052-1.174.102-2.398.102-3.57.102-1.48-.05-2.704-.51-4.03-1.122-4.54-2.09-9.282-.918-13.82.51-1.53.46-.868 2.856.662 2.347 1.122-.358 2.295-.715 3.468-.97.102.203.255.407.56.56 1.735.816 4.744 2.55 6.733 1.734 1.785.357 3.672.256 5.457.103 1.938-.204 3.927-.51 5.865-.867 2.244-.204 4.437-.612 6.528-1.48 1.377-.613.867-2.806-.714-2.398z"/><circle fill="#FF1654" cx="65.178" cy="398.499" r="2.295"/><circle fill="#FF1654" cx="74.562" cy="404.823" r="1.581"/><circle fill="#FF1654" cx="67.524" cy="415.227" r=".816"/></g><g><defs><circle id="k" cx="65.229" cy="405.843" r="13.005"/></defs><clipPath id="l"><use xlink:href="#k" overflow="visible"/></clipPath><g clip-path="url(#l)"><defs><path id="m" d="M65.23 390.95h32.69v32.69H65.23z"/></defs><clipPath id="n"><use xlink:href="#m" overflow="visible"/></clipPath><g opacity=".22" clip-path="url(#n)"><circle fill="#050505" cx="65.229" cy="405.843" r="13.005"/><defs><circle id="o" cx="65.229" cy="405.843" r="13.005"/></defs><clipPath id="p"><use xlink:href="#o" overflow="visible"/></clipPath><g clip-path="url(#p)" fill="#050505"><circle cx="65.229" cy="405.843" r="13.005"/><path d="M82.212 395.235c-1.58-.867-3.264-1.122-4.947-.918-3.723-.612-7.497-1.173-11.27-1.683-2.347-.306-5.05-1.02-7.396-.46-1.48.358-2.347 1.684-2.296 3.06-2.193-.815-4.692-.866-6.885-.152-1.48.51-.868 2.855.662 2.346 2.652-.918 5.61-.356 7.7 1.53 1.02.918 1.684 2.193 2.857 3.01 1.223.815 2.55 1.224 3.977 1.274 3.06.152 5.202-2.143 7.395-3.927 1.428-1.174 3.213-2.244 5.1-2.55 1.377.254 2.703.458 4.08.713 1.377.256 2.295-1.478 1.02-2.243z"/><path d="M79.764 405.996c-.51-.103-1.02-.204-1.53-.255.05-.102.05-.203.05-.306.103-2.447-2.498-3.672-4.59-3.16-1.274.305-2.294 1.273-3.16 2.19-.817.817-1.582 1.633-2.347 2.5-1.377.714-2.754 1.173-4.488 1.122-.613 0-1.174-.102-1.786-.204-1.99-.56-3.927-1.48-5.712-2.346-1.275-1.02-2.856-1.02-4.437-1.02-1.887 0-3.723.662-4.692 2.346-.663 1.224.867 2.346 1.785 1.632.204.102.46.102.714.05.357.205.765.256 1.224 0 1.887-1.223 4.03-.61 5.967.104.97.356 1.887.714 2.856 1.07 2.396.867 4.895 1.377 7.445 1.02.918-.152 1.836-.407 2.703-.713.56-.153 1.122-.357 1.683-.562s1.123-.356 1.684-.51c2.142-.51 4.437 0 6.63-.46 1.173-.406 1.122-2.242 0-2.497zM81.04 414.462c-2.04.51-4.132 1.02-6.223 1.428-.306.052-.612.052-.918.052-1.174.102-2.398.102-3.57.102-1.48-.05-2.704-.51-4.03-1.122-4.54-2.09-9.282-.918-13.82.51-1.53.46-.868 2.856.662 2.347 1.122-.358 2.295-.715 3.468-.97.102.203.255.407.56.56 1.735.816 4.744 2.55 6.733 1.734 1.785.357 3.672.256 5.457.103 1.938-.204 3.927-.51 5.865-.867 2.244-.204 4.437-.612 6.528-1.48 1.377-.613.867-2.806-.714-2.398z"/><circle cx="65.178" cy="398.499" r="2.295"/><circle cx="74.562" cy="404.823" r="1.581"/><circle cx="67.524" cy="415.227" r=".816"/><path d="M57.68 403.344c-3.57-1.326-7.24-2.142-10.556-2.295-3.57-.205-5.712.61-8.16 1.224-.97.255.918 1.274 1.887 1.07 2.092-.51 3.928-1.224 6.886-1.173 2.703.052 6.07.766 9.078 1.888 1.428.51 2.346-.153.867-.714zM85.22 409.413c-5.15.05-10.556 2.09-15.758 2.244-1.07.05-1.377 1.428-.306 1.377 5.202-.153 10.608-2.193 15.76-2.244 1.07 0 1.325-1.377.305-1.377zM64.515 380.343c-4.335-.255-8.62-.05-12.903.663-3.366.56-6.834 1.785-9.13 4.437-1.02 1.173.715 2.958 1.735 1.734 2.142-2.448 5.304-3.315 8.415-3.876 3.927-.662 7.905-.764 11.883-.51 1.58.052 1.58-2.396 0-2.447z"/></g></g></g><circle clip-path="url(#l)" fill="#B2DBBF" cx="72.675" cy="420.837" r=".816"/><circle clip-path="url(#l)" fill="#B2DBBF" cx="82.62" cy="405.282" r=".663"/><circle clip-path="url(#l)" fill="#B2DBBF" cx="57.783" cy="389.319" r="1.071"/></g></g></g></g></svg>