<svg xmlns="http://www.w3.org/2000/svg" width="142.086" height="179.265" viewBox="469.914 329.853 142.086 179.265"><path fill="#028090" d="M525.146 371.622l-5.916 5.304-5.915 5.355 36.21 51 11.27-10.148 11.272-10.098"/><circle fill="#028090" cx="580.482" cy="383.658" r="17.901"/><circle fill="#028090" cx="562.887" cy="396.102" r="10.047"/><circle fill="#028090" cx="509.184" cy="446.388" r="19.584"/><circle fill="#028090" cx="493.017" cy="469.695" r="23.103"/><circle fill="#028090" cx="590.376" cy="358.77" r="19.329"/><circle fill="#028090" cx="552.789" cy="426.141" r="23.715"/><circle fill="#028090" cx="549.627" cy="391.563" r="5.304"/><circle fill="#028090" cx="489.294" cy="443.634" r="6.324"/><circle fill="#028090" cx="533.409" cy="438.024" r="2.499"/><circle fill="#028090" cx="572.832" cy="370.5" r="6.63"/><circle fill="#028090" cx="525.402" cy="432.822" r="9.435"/><circle fill="#028090" cx="535.296" cy="409.617" r="6.885"/><circle fill="#028090" cx="513.264" cy="417.369" r="2.805"/><circle fill="#028090" cx="532.134" cy="420.684" r="9.333"/><circle fill="#028090" cx="554.931" cy="377.844" r="4.896"/><circle fill="#028090" cx="583.032" cy="386.208" r="4.59"/><circle fill="#00A896" cx="537.03" cy="416.502" r="2.805"/><circle fill="#028090" cx="539.682" cy="442.206" r="14.025"/><circle fill="#028090" cx="566.304" cy="407.832" r="12.393"/><circle fill="#028090" cx="610.317" cy="358.26" r="6.324"/><circle fill="#028090" cx="583.338" cy="404.007" r="6.834"/><g fill="#00A896"><path d="M527.034 378.864l-3.162 2.856-3.213 2.856 36.974 46.87 6.07-5.458 6.017-5.406"/><circle cx="576.504" cy="423.336" r="14.484"/><circle cx="576.096" cy="405.894" r="5.355"/><circle cx="598.128" cy="375.957" r="19.431"/><circle cx="592.773" cy="392.889" r="11.985"/><circle cx="590.121" cy="408.036" r="9.384"/><ellipse transform="rotate(-131.984 568.974 440.287)" cx="568.949" cy="440.271" rx="25.703" ry="31.007"/><circle cx="527.901" cy="450.162" r="9.537"/><ellipse transform="rotate(-116.693 532.686 459.695)" cx="532.667" cy="459.684" rx="11.475" ry="19.125"/><circle cx="540.396" cy="435.729" r="6.528"/><circle cx="514.182" cy="458.985" r="10.098"/><circle cx="518.109" cy="488.973" r="20.145"/><circle cx="501.228" cy="479.181" r="8.313"/><circle cx="508.317" cy="469.287" r="5.712"/><ellipse transform="rotate(-131.984 601.604 412.207)" cx="601.584" cy="412.189" rx="20.399" ry="29.069"/><ellipse cx="605.727" cy="455.058" rx="16.015" ry="32.436"/><ellipse cx="566.304" cy="468.267" rx="38.761" ry="11.067"/><circle cx="610.725" cy="391.41" r="10.251"/><circle cx="590.07" cy="462.096" r="8.16"/><circle cx="612.867" cy="430.068" r="7.242"/></g><g><path fill="#B85C22" d="M526.983 375.957c-4.08-2.448-8.06-1.02-8.823-.663v-.05s.05 0 0 0l.05.05c-.407.714-2.09 4.386-.05 8.67 2.09 4.386 10.047 4.794 11.73 4.335l.05.05s-.05 0-.05-.05c.05 0 .05.05.05.05l-.05-.05c0-1.123 1.275-9.844-2.907-12.343z"/><path fill="#F5A65A" d="M525.76 377.436c-2.806-1.683-5.355-.867-6.07-.46-.46.664-1.428 3.01-.05 5.917 1.428 3.01 7.09 3.11 8.058 2.958l.05.052s-.05 0 0 0l-.05-.05c.254-.868.917-6.682-1.94-8.416z"/><path fill="#FF1654" d="M495.873 374.07s-5.967 3.927-3.62 7.293c2.294 3.366 8.72 9.69 8.72 9.69s2.143 1.428 2.907-.714c.612-1.735-5.354-6.682-6.17-9.487-.715-2.6.968-3.672.968-3.672"/><path opacity=".22" d="M492.405 381.26c2.295 3.367 8.67 9.793 8.67 9.793s1.48.816 2.448.05c-4.438-4.487-12.19-10.607-6.223-16.064l-1.07-1.174c-.05-.05-6.17 4.03-3.825 7.395z"/><path fill="#FF1654" d="M519.282 353.925s4.54-5.508 7.65-2.856c3.11 2.65 8.72 9.69 8.72 9.69s1.174 2.243-1.02 2.804c-1.785.408-6.12-6.07-8.77-7.14-2.5-.97-3.725.612-3.725.612"/><path opacity=".22" d="M526.983 351.018c3.11 2.652 8.72 9.74 8.72 9.74s.816 1.43-.05 2.296c-3.98-4.896-9.69-12.852-15.147-8.058l-1.07-1.173c0-.05 4.436-5.457 7.547-2.805z"/></g><g><path fill="#5B5B5B" d="M517.19 374.427l-.255.255-6.527 5.865s2.09 2.193 4.386 4.182c0 0 5.61-4.642 6.426-5.56 1.07-.714 6.17-5.865 6.17-5.865-1.732-2.5-3.62-4.743-3.62-4.743l-6.58 5.865z"/><path opacity=".22" fill="#020202" d="M517.19 374.427l-.152.102-.153.1-6.527 5.866s.918.663 1.988 1.224c0 0 5.355-4.64 6.528-5.763l2.652 2.958c.714-.408 6.12-5.66 6.12-5.66-1.836-2.602-3.928-4.795-3.928-4.795l-6.527 5.967z"/><path fill="#898989" d="M526.654 367.563l-17.323 15.59-1.876-2.086 17.324-15.59z"/></g><g><path fill="#4E5F60" d="M478.023 329.955h0zM477.666 329.955h.102-.102zM478.278 329.904h.204-.204zM477.87 329.955h.153-.153zM476.952 331.28c0-.05 0-.1.05-.203-.05.102-.05.153-.05.204zM478.482 329.904h.203-.203zM476.8 332.2c0-.103.05-.205.05-.307 0 .102-.05.204-.05.306zM477.054 330.618v-.102.102zM477.105 330.465v-.102.102zM477.36 330.006h0zM477.003 330.822c0-.05 0-.102.05-.153 0 .05-.05.1-.05.152zM476.952 331.026c0-.05 0-.102.05-.153 0 .05 0 .102-.05.153zM477.513 330.006h.103c0-.05-.052 0-.103 0zM479.043 329.904h.306-.307zM477.105 330.312v-.102.102zM476.9 331.536c0-.05 0-.153.052-.204-.05.05-.05.153-.05.204zM491.844 331.638c-5.405-1.632-9.944-1.836-12.443-1.734 2.5-.102 7.038.102 12.444 1.734zM476.8 332.2c-.307 2.498-.612 7.037.407 12.596-1.02-5.56-.714-10.098-.408-12.597zM492.048 331.893L477.462 345c.612 5.967 4.335 14.637 11.526 22.287l16.523 17.595 11.527-10.353.255-.205 11.526-10.353-15.76-18.258c-6.934-8.007-15.145-12.597-21.01-13.82zM476.85 331.842c0-.102 0-.153.052-.255-.052.102-.052.153-.052.255zM478.788 329.904h.255-.255z"/><path fill="#2B4448" d="M492.048 331.893l-.102-.102c-5.406-1.63-9.996-1.886-12.546-1.835l-.052-.05h-.306l-.05.152c-.104 0-.205.153-.256.153h-.052c-.102 0-.152-.153-.203-.153l-.05-.05c-.052 0-.153-.052-.205-.052H477.51h-.153l-.052-.102s.052 0 .052.05c-.052 0-.052-.05-.052-.05l.052.102-.153.204-.05.1c0 .052-.052.103-.052.154v.05c0 .052 0 .103-.052.154v.05c0 .052 0 .103-.05.154v.05c0 .052 0 .103-.052.154v.05c0 .052 0 .103-.05.205v.052c0 .05 0 .153-.052.204v.05c0 .103 0 .154-.052.256l-.152-.153c0 .1-.153.05-.204.1.204 3.112-.408 7.6 1.02 12.802l.204.255 14.386-12.954z"/><path opacity=".22" fill="#020202" d="M477.31 330.057s19.89-2.703 35.648 15.555c15.76 18.258 15.81 18.41 15.81 18.41l-11.525 10.354"/><circle fill="#4E5F60" cx="494.088" cy="348.978" r="8.568"/><circle opacity=".22" cx="494.088" cy="348.978" r="8.568"/><circle fill="#4E5F60" cx="494.088" cy="348.978" r="7.242"/><circle fill="#70C1B3" cx="494.088" cy="348.978" r="5.763"/><path opacity=".22" fill="#020202" d="M510.102 362.697c-1.07-1.224-3.16-1.122-3.824-.612l11.016 12.24 1.785-1.632-8.978-9.996z"/><path opacity=".22" d="M490.365 344.592l.05-.05 7.702 8.516-.05.05c2.345-2.14 2.55-5.762.406-8.108-2.14-2.346-5.71-2.55-8.108-.408z"/></g><g><path fill="#FF1654" d="M520.302 377.18l-1.02.92c-.46.458-1.225.407-1.684-.103l-10.557-11.73c-.458-.46-.407-1.224.103-1.683l1.02-.918c.46-.46 1.225-.408 1.684.102l10.558 11.73c.458.51.408 1.275-.103 1.683z"/><path opacity=".22" fill="#020202" d="M507.91 364.176l.05-.05c-.05.05.05-.103.05-.103l12.14 13.464s0 .255.05.204l-.05.052c.765-.663.61-1.938-.052-2.703l-9.64-10.71c-.713-.766-1.784-.868-2.55-.154z"/></g></svg>