<svg width="123" height="121" xmlns="http://www.w3.org/2000/svg"><title>background</title><path fill="transparent" d="M-1-1h125v123H-1z"/><g><title>Layer 1</title><g transform="scale(.6758)"><path fill="#028090" d="M69.3 52.4L61.9 59l-7.4 6.7 45.4 64L114 117l14.2-12.7"/><circle r="22.5" cy="67.5" cx="138.7" fill="#028090"/><circle r="12.6" cy="83.1" cx="116.6" fill="#028090"/><circle r="24.6" cy="146.1" cx="49.3" fill="#028090"/><circle r="29" cy="175.4" cx="29" fill="#028090"/><circle r="24.3" cy="36.2" cx="151.1" fill="#028090"/><circle r="29.7" cy="120.7" cx="104" fill="#028090"/><circle r="6.6" cy="77.4" cx="100" fill="#028090"/><circle r="7.9" cy="142.7" cx="24.4" fill="#028090"/><circle r="3.1" cy="135.7" cx="79.7" fill="#028090"/><circle r="8.3" cy="51" cx="129.1" fill="#028090"/><circle r="11.8" cy="129.2" cx="69.6" fill="#028090"/><circle r="8.6" cy="100.1" cx="82.1" fill="#028090"/><circle r="3.5" cy="109.7" cx="54.4" fill="#028090"/><circle r="11.7" cy="113.9" cx="78.1" fill="#028090"/><circle r="6.1" cy="60.2" cx="106.7" fill="#028090"/><circle r="5.7" cy="70.7" cx="141.9" fill="#028090"/><circle r="3.5" cy="108.7" cx="84.2" fill="#00A896"/><circle r="17.6" cy="140.9" cx="87.6" fill="#028090"/><circle r="15.5" cy="97.8" cx="120.9" fill="#028090"/><circle r="8" cy="35.6" cx="176.1" fill="#028090"/><circle r="8.6" cy="93" cx="142.3" fill="#028090"/></g><g transform="scale(.6758)" fill="#00A896"><path d="M71.7 61.5l-4 3.5-4 3.6 46.4 58.8 7.6-6.8 7.6-6.8"/><circle r="18.2" cy="117.3" cx="133.7"/><circle r="6.7" cy="95.4" cx="133.3"/><circle r="24.3" cy="57.8" cx="160.8"/><circle r="15" cy="79.1" cx="154.1"/><circle r="11.7" cy="98" cx="150.8"/><ellipse ry="32.2" rx="38.9" cy="138.4" cx="124.2" transform="rotate(-41.984 124.254 138.455)"/><circle r="12" cy="150.9" cx="72.8"/><ellipse ry="14.4" rx="24" cy="162.9" cx="78.8" transform="rotate(-26.693 78.756 162.864)"/><circle r="8.2" cy="132.7" cx="88.4"/><circle r="12.7" cy="161.9" cx="55.6"/><circle r="25.2" cy="199.5" cx="60.5"/><circle r="10.4" cy="187.3" cx="39.3"/><circle r="7.1" cy="174.8" cx="48.2"/><ellipse ry="25.6" rx="36.4" cy="103.2" cx="165.2" transform="rotate(-41.984 165.22 103.225)"/><ellipse ry="40.7" rx="20.1" cy="157" cx="170.4"/><ellipse ry="13.9" rx="48.6" cy="173.6" cx="120.9"/><circle r="12.9" cy="77.2" cx="176.7"/><circle r="10.2" cy="165.8" cx="150.7"/><circle r="9.1" cy="125.7" cx="179.3"/></g><path d="M48.387 39.06c-3.447-2.094-6.826-.878-7.502-.54-.338.608-1.824 3.717-.067 7.366 1.757 3.717 8.515 4.055 9.934 3.65l.067.067c.067 0 0 0 0 0l-.068-.068c.135-.946 1.216-8.38-2.365-10.474z" fill="#B85C22"/><path d="M47.373 40.345c-2.365-1.42-4.528-.744-5.136-.406-.406.54-1.217 2.567-.068 5 1.216 2.568 6.014 2.636 6.825 2.5l.067.068-.067-.068c.203-.743.81-5.676-1.622-7.095z" fill="#F5A65A"/><path d="M22.03 37.506s-5.068 3.312-3.108 6.218 7.434 8.244 7.434 8.244 1.824 1.217 2.433-.608c.54-1.487-4.53-5.677-5.205-8.042-.608-2.162.81-3.108.81-3.108" fill="#FF1654"/><path d="M19.057 43.52c1.96 2.84 7.366 8.313 7.366 8.313s1.284.676 2.095.068c-3.784-3.784-10.34-8.987-5.27-13.583l-.947-1.08s-5.203 3.446-3.243 6.284z" opacity=".22"/><path d="M41.9 20.41s3.85-4.664 6.487-2.434c2.635 2.23 7.433 8.245 7.433 8.245s1.014 1.893-.878 2.366c-1.555.338-5.136-5.136-7.434-6.015-2.095-.81-3.176.474-3.176.474" fill="#FF1654"/><path d="M48.387 17.908c2.635 2.23 7.366 8.245 7.366 8.245s.675 1.216-.068 1.96c-3.38-4.19-8.245-10.88-12.84-6.826l-.878-1.013s3.784-4.596 6.42-2.366z" opacity=".22"/><g><path d="M40.074 37.777l-.202.202-5.542 5s1.757 1.825 3.717 3.514c0 0 4.73-3.92 5.474-4.73.88-.608 5.272-5 5.272-5-1.487-2.096-3.11-3.988-3.11-3.988l-5.608 5z" fill="#5B5B5B"/><path d="M40.074 37.777l-.135.135-.068.067-5.542 5s.81.54 1.69 1.082c0 0 4.527-3.92 5.54-4.866l2.23 2.5c.61-.338 5.205-4.798 5.205-4.798-1.555-2.23-3.312-4.055-3.312-4.055l-5.61 4.934z" fill="#020202" opacity=".22"/><path fill="#898989" d="M31.816 43.422l14.668-13.2 1.582 1.76-14.668 13.2z"/></g><g transform="rotate(.312) scale(.6758)"><path d="M12.7.6c0-.2-.2-.4-.4-.5h-1.4c-.4.1-.7.1-1.1.1h-.3c-.3 0-.4.4-.2.7-.1 0-.3.1-.3.3-.1.4-.2.8-.4 1.2 0 .1 0 .2-.1.4 0 .1 0 .2.1.2 0 .1 0 .2-.1.2-.1.6.7 1.1 1 .6.2-.4.1-.8.2-1.3v-.2c.1-.3.2-.5.2-.8v-.2c.3.1.6.1.9.2.5.1 1.1 0 1.6.1.7.1.9-.9.3-1z" fill="#2B4448"/><path d="M8.8 1.8v-.2c.1 0 .1.1 0 .2zM8.7 2.9c0-.1 0-.3.1-.4-.1.1-.1.3-.1.4zM9 1V.8 1zM9 .8V.7v.1zM9.4.2h0zM8.9 1.2c.1-.1.1-.1.1-.2 0 .1 0 .1-.1.2zM8.9 1.5v-.2.2zM9.6.1h0zM9.1.6V.5v.1zM8.8 2.1v-.3.3zM27.5 2.2C20.7.2 15-.1 11.9 0c3.2-.1 8.9.2 15.6 2.2z" fill="#4E5F60"/><path d="M8.7 2.9c-.4 3.2-.8 8.8.5 15.8-1.3-6.9-.9-12.6-.5-15.8zM27.8 2.5L9.5 19c.8 7.5 5.4 18.3 14.5 28l20.7 22.1 14.5-13 .3-.3 14.4-13-19.8-22.9c-8.6-10-19-15.8-26.3-17.4zM8.7 2.5v-.3c.1.1.1.2 0 .3z" fill="#4E5F60"/><path d="M27.7 2.4C20.9.3 15.1 0 12 .1h-.4v.5c-.1 0-.2.5-.3.5h-.1c-.1 0-.2-.5-.3-.5 0 0 0-.3-.1-.2-.1 0-.2-.1-.2-.1s0-.1-.1-.1h-.2H10 9.7h-.1-.2s-.2.2-.2.3l-.1.1S9 .7 9 .8V2.6l-.1-.1c-.4.6-.5 1.3-.6 2 0 3.7-.3 8.5 1.2 14l.3.3 18-16.2c0-.1-.1-.2-.1-.2z" fill="#2B4448"/><path d="M9.3.2S34.2-3.2 54 19.7s19.9 23.1 19.9 23.1l-14.4 13" fill="#020202" opacity=".22"/><circle r="10.7" cy="23.9" cx="30.4" fill="#4E5F60"/><circle r="10.7" cy="23.9" cx="30.4" opacity=".22"/><circle r="9.1" cy="23.9" cx="30.4" fill="#4E5F60"/><circle r="7.2" cy="23.9" cx="30.4" fill="#70C1B3"/><path d="M50.4 41.2c-1.4-1.5-4-1.4-4.8-.8l13.8 15.4 2.3-2-11.3-12.6z" fill="#020202" opacity=".22"/><path d="M25.7 18.4c0 .1.1 0 0 0L35.4 29l-.1.1c3-2.7 3.2-7.2.5-10.2-2.6-2.9-7.1-3.1-10.1-.5z" opacity=".22"/></g><g><path d="M42.372 40.48c-.676.608-1.622.54-2.23-.068l-8.245-9.123c-.608-.61-.54-1.623.135-2.23.61-.61 1.622-.542 2.23.134l8.178 9.123c.608.61.54 1.622-.068 2.163z" fill="#FF1654"/><path d="M32.235 29.06l.068-.136 10.272 11.42s0 .203.067.203c.676-.608.54-1.62-.067-2.297l-8.177-9.056c-.61-.676-1.555-.676-2.163-.135z" fill="#020202" opacity=".22"/></g></g></svg>
