<svg version="1" xmlns="http://www.w3.org/2000/svg" width="693.333" height="693.333" viewBox="0 0 520.000000 520.000000"><path d="M154 182c-41.6 8.9-69.6 46.7-64.9 87.7 3.7 33 27.5 59.9 61.4 69.5l8 2.3h206l8-2.3c30.1-8.5 51.4-29.2 59.7-57.9 1.9-6.5 2.3-10.1 2.2-21.3 0-12.5-.3-14.2-3.3-23-4.5-13.3-10-22-20-32.1-13.2-13.2-28.1-20.9-46.3-23.9-4-.6-42.1-1-104.3-.9-90.8 0-98.6.2-106.5 1.9zm52.1 48c18.3 9.3 23.1 42.8 9 61.7-4.5 6-12.5 10.3-19 10.3-16.8 0-30.1-22.7-26.3-45.1 3.9-22.7 20.4-34.9 36.3-26.9zm136 .1c4.9 2.5 9.6 8.1 13.2 15.7 4.2 9 5 22.7 1.9 32.9-8.1 26.6-33.5 31.5-46.7 9-5.1-8.9-7-24.5-4.1-35.2 5.4-20.3 20.8-30 35.7-22.4z"/></svg>